<mxfile host="65bd71144e" pages="2">
    <diagram id="QyIFkyNHe3dVIFVu5Ysi" name="UML Class Diagram">
        <mxGraphModel dx="6017" dy="3337" grid="1" gridSize="10" guides="1" tooltips="1" connect="1" arrows="1" fold="1" page="1" pageScale="1" pageWidth="850" pageHeight="1100" math="0" shadow="0">
            <root>
                <mxCell id="0"/>
                <mxCell id="1" parent="0"/>
                <mxCell id="Ar9rGKO723f08wQL0Or9-344" value="&lt;font color=&quot;#ffffff&quot;&gt;&lt;b&gt;Component&lt;/b&gt;&lt;br&gt;&lt;font style=&quot;font-size: 10px&quot;&gt;{ abstract Class }&lt;/font&gt;&lt;/font&gt;" style="swimlane;fontStyle=0;align=center;verticalAlign=middle;childLayout=stackLayout;horizontal=1;startSize=55;horizontalStack=0;resizeParent=0;resizeParentMax=0;resizeLast=1;collapsible=0;marginBottom=0;html=1;fontFamily=Helvetica;strokeColor=#9673a6;swimlaneFillColor=#E1D5E7;fillColor=#9673A6;rounded=1;" vertex="1" parent="1">
                    <mxGeometry x="280" y="110" width="200" height="770" as="geometry"/>
                </mxCell>
                <mxCell id="Ar9rGKO723f08wQL0Or9-345" value="attributes" style="text;html=1;strokeColor=none;fillColor=none;align=center;verticalAlign=middle;spacingLeft=4;spacingRight=4;overflow=hidden;rotatable=0;points=[[0,0.5],[1,0.5]];portConstraint=eastwest;fontFamily=Helvetica;" vertex="1" parent="Ar9rGKO723f08wQL0Or9-344">
                    <mxGeometry y="55" width="200" height="20" as="geometry"/>
                </mxCell>
                <mxCell id="Ar9rGKO723f08wQL0Or9-346" value="name" style="text;html=1;strokeColor=none;fillColor=none;align=left;verticalAlign=middle;spacingLeft=4;spacingRight=4;overflow=hidden;rotatable=0;points=[[0,0.5],[1,0.5]];portConstraint=eastwest;fontFamily=Helvetica;" vertex="1" parent="Ar9rGKO723f08wQL0Or9-344">
                    <mxGeometry y="75" width="200" height="25" as="geometry"/>
                </mxCell>
                <mxCell id="Ar9rGKO723f08wQL0Or9-347" value="purchasePrice" style="text;html=1;strokeColor=none;fillColor=none;align=left;verticalAlign=middle;spacingLeft=4;spacingRight=4;overflow=hidden;rotatable=0;points=[[0,0.5],[1,0.5]];portConstraint=eastwest;fontFamily=Helvetica;" vertex="1" parent="Ar9rGKO723f08wQL0Or9-344">
                    <mxGeometry y="100" width="200" height="25" as="geometry"/>
                </mxCell>
                <mxCell id="Ar9rGKO723f08wQL0Or9-348" value="location-x" style="text;html=1;strokeColor=none;fillColor=none;align=left;verticalAlign=middle;spacingLeft=4;spacingRight=4;overflow=hidden;rotatable=0;points=[[0,0.5],[1,0.5]];portConstraint=eastwest;fontFamily=Helvetica;" vertex="1" parent="Ar9rGKO723f08wQL0Or9-344">
                    <mxGeometry y="125" width="200" height="25" as="geometry"/>
                </mxCell>
                <mxCell id="Ar9rGKO723f08wQL0Or9-349" value="location-y" style="text;html=1;strokeColor=none;fillColor=none;align=left;verticalAlign=middle;spacingLeft=4;spacingRight=4;overflow=hidden;rotatable=0;points=[[0,0.5],[1,0.5]];portConstraint=eastwest;fontFamily=Helvetica;" vertex="1" parent="Ar9rGKO723f08wQL0Or9-344">
                    <mxGeometry y="150" width="200" height="25" as="geometry"/>
                </mxCell>
                <mxCell id="Ar9rGKO723f08wQL0Or9-350" value="length" style="text;html=1;strokeColor=none;fillColor=none;align=left;verticalAlign=middle;spacingLeft=4;spacingRight=4;overflow=hidden;rotatable=0;points=[[0,0.5],[1,0.5]];portConstraint=eastwest;fontFamily=Helvetica;" vertex="1" parent="Ar9rGKO723f08wQL0Or9-344">
                    <mxGeometry y="175" width="200" height="25" as="geometry"/>
                </mxCell>
                <mxCell id="Ar9rGKO723f08wQL0Or9-351" value="width" style="text;html=1;strokeColor=none;fillColor=none;align=left;verticalAlign=middle;spacingLeft=4;spacingRight=4;overflow=hidden;rotatable=0;points=[[0,0.5],[1,0.5]];portConstraint=eastwest;fontFamily=Helvetica;" vertex="1" parent="Ar9rGKO723f08wQL0Or9-344">
                    <mxGeometry y="200" width="200" height="25" as="geometry"/>
                </mxCell>
                <mxCell id="Ar9rGKO723f08wQL0Or9-352" value="height" style="text;html=1;strokeColor=none;fillColor=none;align=left;verticalAlign=middle;spacingLeft=4;spacingRight=4;overflow=hidden;rotatable=0;points=[[0,0.5],[1,0.5]];portConstraint=eastwest;fontFamily=Helvetica;" vertex="1" parent="Ar9rGKO723f08wQL0Or9-344">
                    <mxGeometry y="225" width="200" height="25" as="geometry"/>
                </mxCell>
                <mxCell id="Ar9rGKO723f08wQL0Or9-353" value="rectangle" style="text;html=1;strokeColor=none;fillColor=none;align=left;verticalAlign=middle;spacingLeft=4;spacingRight=4;overflow=hidden;rotatable=0;points=[[0,0.5],[1,0.5]];portConstraint=eastwest;fontFamily=Helvetica;" vertex="1" parent="Ar9rGKO723f08wQL0Or9-344">
                    <mxGeometry y="250" width="200" height="25" as="geometry"/>
                </mxCell>
                <mxCell id="Ar9rGKO723f08wQL0Or9-354" value="label" style="text;html=1;strokeColor=none;fillColor=none;align=left;verticalAlign=middle;spacingLeft=4;spacingRight=4;overflow=hidden;rotatable=0;points=[[0,0.5],[1,0.5]];portConstraint=eastwest;fontFamily=Helvetica;" vertex="1" parent="Ar9rGKO723f08wQL0Or9-344">
                    <mxGeometry y="275" width="200" height="25" as="geometry"/>
                </mxCell>
                <mxCell id="Ar9rGKO723f08wQL0Or9-355" value="" style="line;strokeWidth=1;fillColor=none;align=left;verticalAlign=middle;spacingTop=-1;spacingLeft=3;spacingRight=3;rotatable=0;labelPosition=right;points=[];portConstraint=eastwest;fontFamily=Helvetica;html=1;" vertex="1" parent="Ar9rGKO723f08wQL0Or9-344">
                    <mxGeometry y="300" width="200" height="12" as="geometry"/>
                </mxCell>
                <mxCell id="Ar9rGKO723f08wQL0Or9-356" value="operations" style="text;strokeColor=none;fillColor=none;align=center;verticalAlign=middle;spacingLeft=4;spacingRight=4;overflow=hidden;rotatable=0;points=[[0,0.5],[1,0.5]];portConstraint=eastwest;fontFamily=Helvetica;html=1;" vertex="1" parent="Ar9rGKO723f08wQL0Or9-344">
                    <mxGeometry y="312" width="200" height="23" as="geometry"/>
                </mxCell>
                <mxCell id="Ar9rGKO723f08wQL0Or9-357" value="Component()" style="text;strokeColor=none;fillColor=none;align=left;verticalAlign=middle;spacingLeft=4;spacingRight=4;overflow=hidden;rotatable=0;points=[[0,0.5],[1,0.5]];portConstraint=eastwest;fontFamily=Helvetica;html=1;" vertex="1" parent="Ar9rGKO723f08wQL0Or9-344">
                    <mxGeometry y="335" width="200" height="25" as="geometry"/>
                </mxCell>
                <mxCell id="Ar9rGKO723f08wQL0Or9-358" value="addComponent()" style="text;strokeColor=none;fillColor=none;align=left;verticalAlign=middle;spacingLeft=4;spacingRight=4;overflow=hidden;rotatable=0;points=[[0,0.5],[1,0.5]];portConstraint=eastwest;fontFamily=Helvetica;html=1;" vertex="1" parent="Ar9rGKO723f08wQL0Or9-344">
                    <mxGeometry y="360" width="200" height="25" as="geometry"/>
                </mxCell>
                <mxCell id="Ar9rGKO723f08wQL0Or9-359" value="deleteComponent()" style="text;strokeColor=none;fillColor=none;align=left;verticalAlign=middle;spacingLeft=4;spacingRight=4;overflow=hidden;rotatable=0;points=[[0,0.5],[1,0.5]];portConstraint=eastwest;fontFamily=Helvetica;html=1;" vertex="1" parent="Ar9rGKO723f08wQL0Or9-344">
                    <mxGeometry y="385" width="200" height="25" as="geometry"/>
                </mxCell>
                <mxCell id="Ar9rGKO723f08wQL0Or9-360" value="isContainer()" style="text;strokeColor=none;fillColor=none;align=left;verticalAlign=middle;spacingLeft=4;spacingRight=4;overflow=hidden;rotatable=0;points=[[0,0.5],[1,0.5]];portConstraint=eastwest;fontFamily=Helvetica;html=1;" vertex="1" parent="Ar9rGKO723f08wQL0Or9-344">
                    <mxGeometry y="410" width="200" height="25" as="geometry"/>
                </mxCell>
                <mxCell id="Ar9rGKO723f08wQL0Or9-361" value="getCollection()" style="text;strokeColor=none;fillColor=none;align=left;verticalAlign=middle;spacingLeft=4;spacingRight=4;overflow=hidden;rotatable=0;points=[[0,0.5],[1,0.5]];portConstraint=eastwest;fontFamily=Helvetica;html=1;" vertex="1" parent="Ar9rGKO723f08wQL0Or9-344">
                    <mxGeometry y="435" width="200" height="25" as="geometry"/>
                </mxCell>
                <mxCell id="Ar9rGKO723f08wQL0Or9-362" value="get/setMarketValue()" style="text;strokeColor=none;fillColor=none;align=left;verticalAlign=middle;spacingLeft=4;spacingRight=4;overflow=hidden;rotatable=0;points=[[0,0.5],[1,0.5]];portConstraint=eastwest;fontFamily=Helvetica;html=1;" vertex="1" parent="Ar9rGKO723f08wQL0Or9-344">
                    <mxGeometry y="460" width="200" height="25" as="geometry"/>
                </mxCell>
                <mxCell id="Ar9rGKO723f08wQL0Or9-363" value="accept()" style="text;strokeColor=none;fillColor=none;align=left;verticalAlign=middle;spacingLeft=4;spacingRight=4;overflow=hidden;rotatable=0;points=[[0,0.5],[1,0.5]];portConstraint=eastwest;fontFamily=Helvetica;html=1;" vertex="1" parent="Ar9rGKO723f08wQL0Or9-344">
                    <mxGeometry y="485" width="200" height="25" as="geometry"/>
                </mxCell>
                <mxCell id="Ar9rGKO723f08wQL0Or9-364" value="get/setPrice()" style="text;strokeColor=none;fillColor=none;align=left;verticalAlign=middle;spacingLeft=4;spacingRight=4;overflow=hidden;rotatable=0;points=[[0,0.5],[1,0.5]];portConstraint=eastwest;fontFamily=Helvetica;html=1;" vertex="1" parent="Ar9rGKO723f08wQL0Or9-344">
                    <mxGeometry y="510" width="200" height="25" as="geometry"/>
                </mxCell>
                <mxCell id="Ar9rGKO723f08wQL0Or9-365" value="get/setPurchasePrice()" style="text;strokeColor=none;fillColor=none;align=left;verticalAlign=middle;spacingLeft=4;spacingRight=4;overflow=hidden;rotatable=0;points=[[0,0.5],[1,0.5]];portConstraint=eastwest;fontFamily=Helvetica;html=1;" vertex="1" parent="Ar9rGKO723f08wQL0Or9-344">
                    <mxGeometry y="535" width="200" height="25" as="geometry"/>
                </mxCell>
                <mxCell id="Ar9rGKO723f08wQL0Or9-366" value="getRectangle()" style="text;strokeColor=none;fillColor=none;align=left;verticalAlign=middle;spacingLeft=4;spacingRight=4;overflow=hidden;rotatable=0;points=[[0,0.5],[1,0.5]];portConstraint=eastwest;fontFamily=Helvetica;html=1;" vertex="1" parent="Ar9rGKO723f08wQL0Or9-344">
                    <mxGeometry y="560" width="200" height="25" as="geometry"/>
                </mxCell>
                <mxCell id="Ar9rGKO723f08wQL0Or9-367" value="getLabel()" style="text;strokeColor=none;fillColor=none;align=left;verticalAlign=middle;spacingLeft=4;spacingRight=4;overflow=hidden;rotatable=0;points=[[0,0.5],[1,0.5]];portConstraint=eastwest;fontFamily=Helvetica;html=1;" vertex="1" parent="Ar9rGKO723f08wQL0Or9-344">
                    <mxGeometry y="585" width="200" height="25" as="geometry"/>
                </mxCell>
                <mxCell id="Ar9rGKO723f08wQL0Or9-368" value="get/setName()" style="text;strokeColor=none;fillColor=none;align=left;verticalAlign=middle;spacingLeft=4;spacingRight=4;overflow=hidden;rotatable=0;points=[[0,0.5],[1,0.5]];portConstraint=eastwest;fontFamily=Helvetica;html=1;" vertex="1" parent="Ar9rGKO723f08wQL0Or9-344">
                    <mxGeometry y="610" width="200" height="25" as="geometry"/>
                </mxCell>
                <mxCell id="Ar9rGKO723f08wQL0Or9-369" value="get/setLocationX()" style="text;strokeColor=none;fillColor=none;align=left;verticalAlign=middle;spacingLeft=4;spacingRight=4;overflow=hidden;rotatable=0;points=[[0,0.5],[1,0.5]];portConstraint=eastwest;fontFamily=Helvetica;html=1;" vertex="1" parent="Ar9rGKO723f08wQL0Or9-344">
                    <mxGeometry y="635" width="200" height="25" as="geometry"/>
                </mxCell>
                <mxCell id="Ar9rGKO723f08wQL0Or9-370" value="get/setLocationY()" style="text;strokeColor=none;fillColor=none;align=left;verticalAlign=middle;spacingLeft=4;spacingRight=4;overflow=hidden;rotatable=0;points=[[0,0.5],[1,0.5]];portConstraint=eastwest;fontFamily=Helvetica;html=1;" vertex="1" parent="Ar9rGKO723f08wQL0Or9-344">
                    <mxGeometry y="660" width="200" height="25" as="geometry"/>
                </mxCell>
                <mxCell id="Ar9rGKO723f08wQL0Or9-371" value="&lt;span style=&quot;text-align: center&quot;&gt;get/setL&lt;/span&gt;ength()" style="text;html=1;strokeColor=none;fillColor=none;align=left;verticalAlign=middle;spacingLeft=4;spacingRight=4;overflow=hidden;rotatable=0;points=[[0,0.5],[1,0.5]];portConstraint=eastwest;fontFamily=Helvetica;" vertex="1" parent="Ar9rGKO723f08wQL0Or9-344">
                    <mxGeometry y="685" width="200" height="25" as="geometry"/>
                </mxCell>
                <mxCell id="Ar9rGKO723f08wQL0Or9-372" value="&lt;span style=&quot;text-align: center&quot;&gt;get/setW&lt;/span&gt;idth()" style="text;html=1;strokeColor=none;fillColor=none;align=left;verticalAlign=middle;spacingLeft=4;spacingRight=4;overflow=hidden;rotatable=0;points=[[0,0.5],[1,0.5]];portConstraint=eastwest;fontFamily=Helvetica;" vertex="1" parent="Ar9rGKO723f08wQL0Or9-344">
                    <mxGeometry y="710" width="200" height="25" as="geometry"/>
                </mxCell>
                <mxCell id="Ar9rGKO723f08wQL0Or9-373" value="&lt;span style=&quot;text-align: center&quot;&gt;get/setH&lt;/span&gt;eight()" style="text;html=1;strokeColor=none;fillColor=none;align=left;verticalAlign=middle;spacingLeft=4;spacingRight=4;overflow=hidden;rotatable=0;points=[[0,0.5],[1,0.5]];portConstraint=eastwest;fontFamily=Helvetica;" vertex="1" parent="Ar9rGKO723f08wQL0Or9-344">
                    <mxGeometry y="735" width="200" height="30" as="geometry"/>
                </mxCell>
                <mxCell id="Ar9rGKO723f08wQL0Or9-374" value="&lt;div style=&quot;text-align: center&quot;&gt;&lt;span&gt;.&lt;/span&gt;&lt;/div&gt;" style="text;html=1;strokeColor=none;fillColor=none;align=left;verticalAlign=middle;spacingLeft=4;spacingRight=4;overflow=hidden;rotatable=0;points=[[0,0.5],[1,0.5]];portConstraint=eastwest;fontFamily=Helvetica;" vertex="1" parent="Ar9rGKO723f08wQL0Or9-344">
                    <mxGeometry y="765" width="200" height="15" as="geometry"/>
                </mxCell>
                <mxCell id="Ar9rGKO723f08wQL0Or9-375" value="" style="line;strokeWidth=1;fillColor=none;align=left;verticalAlign=middle;spacingTop=-1;spacingLeft=3;spacingRight=3;rotatable=0;labelPosition=right;points=[];portConstraint=eastwest;fontFamily=Helvetica;fontColor=#FFFFFF;strokeColor=#FFFFFF;" vertex="1" parent="Ar9rGKO723f08wQL0Or9-344">
                    <mxGeometry y="780" width="200" height="-10" as="geometry"/>
                </mxCell>
                <mxCell id="Ar9rGKO723f08wQL0Or9-376" value="&lt;b&gt;&lt;font color=&quot;#ffffff&quot;&gt;Item&amp;nbsp;&lt;br&gt;&lt;/font&gt;&lt;/b&gt;&lt;span style=&quot;color: rgb(255 , 255 , 255) ; font-size: 10px&quot;&gt;~~ Class ~~&lt;/span&gt;&lt;b&gt;&lt;font color=&quot;#ffffff&quot;&gt;&lt;br&gt;&lt;/font&gt;&lt;/b&gt;" style="swimlane;fontStyle=0;align=center;verticalAlign=middle;childLayout=stackLayout;horizontal=1;startSize=55;horizontalStack=0;resizeParent=0;resizeParentMax=0;resizeLast=1;collapsible=0;marginBottom=0;fontFamily=Helvetica;html=1;strokeColor=#9673a6;swimlaneFillColor=#E1D5E7;fillColor=#9673A6;rounded=1;" vertex="1" parent="1">
                    <mxGeometry x="160" y="980" width="200" height="330" as="geometry"/>
                </mxCell>
                <mxCell id="Ar9rGKO723f08wQL0Or9-377" value="attributes" style="text;strokeColor=none;fillColor=none;align=center;verticalAlign=middle;spacingLeft=4;spacingRight=4;overflow=hidden;rotatable=0;points=[[0,0.5],[1,0.5]];portConstraint=eastwest;fontFamily=Helvetica;html=1;" vertex="1" parent="Ar9rGKO723f08wQL0Or9-376">
                    <mxGeometry y="55" width="200" height="20" as="geometry"/>
                </mxCell>
                <mxCell id="Ar9rGKO723f08wQL0Or9-378" value="extends Component" style="text;strokeColor=none;fillColor=none;align=left;verticalAlign=middle;spacingLeft=4;spacingRight=4;overflow=hidden;rotatable=0;points=[[0,0.5],[1,0.5]];portConstraint=eastwest;fontFamily=Helvetica;fontSize=11;html=1;" vertex="1" parent="Ar9rGKO723f08wQL0Or9-376">
                    <mxGeometry y="75" width="200" height="25" as="geometry"/>
                </mxCell>
                <mxCell id="Ar9rGKO723f08wQL0Or9-379" value="marketValue" style="text;strokeColor=none;fillColor=none;align=left;verticalAlign=middle;spacingLeft=4;spacingRight=4;overflow=hidden;rotatable=0;points=[[0,0.5],[1,0.5]];portConstraint=eastwest;fontFamily=Helvetica;html=1;" vertex="1" parent="Ar9rGKO723f08wQL0Or9-376">
                    <mxGeometry y="100" width="200" height="25" as="geometry"/>
                </mxCell>
                <mxCell id="Ar9rGKO723f08wQL0Or9-380" value="" style="line;strokeWidth=1;fillColor=none;align=left;verticalAlign=middle;spacingTop=-1;spacingLeft=3;spacingRight=3;rotatable=0;labelPosition=right;points=[];portConstraint=eastwest;fontFamily=Helvetica;html=1;" vertex="1" parent="Ar9rGKO723f08wQL0Or9-376">
                    <mxGeometry y="125" width="200" height="12" as="geometry"/>
                </mxCell>
                <mxCell id="Ar9rGKO723f08wQL0Or9-381" value="operations" style="text;strokeColor=none;fillColor=none;align=center;verticalAlign=middle;spacingLeft=4;spacingRight=4;overflow=hidden;rotatable=0;points=[[0,0.5],[1,0.5]];portConstraint=eastwest;fontFamily=Helvetica;html=1;" vertex="1" parent="Ar9rGKO723f08wQL0Or9-376">
                    <mxGeometry y="137" width="200" height="28" as="geometry"/>
                </mxCell>
                <mxCell id="Ar9rGKO723f08wQL0Or9-382" value="Item()" style="text;strokeColor=none;fillColor=none;align=left;verticalAlign=middle;spacingLeft=4;spacingRight=4;overflow=hidden;rotatable=0;points=[[0,0.5],[1,0.5]];portConstraint=eastwest;fontFamily=Helvetica;html=1;" vertex="1" parent="Ar9rGKO723f08wQL0Or9-376">
                    <mxGeometry y="165" width="200" height="25" as="geometry"/>
                </mxCell>
                <mxCell id="Ar9rGKO723f08wQL0Or9-383" value="get/setMarketValue()" style="text;strokeColor=none;fillColor=none;align=left;verticalAlign=middle;spacingLeft=4;spacingRight=4;overflow=hidden;rotatable=0;points=[[0,0.5],[1,0.5]];portConstraint=eastwest;fontFamily=Helvetica;html=1;" vertex="1" parent="Ar9rGKO723f08wQL0Or9-376">
                    <mxGeometry y="190" width="200" height="25" as="geometry"/>
                </mxCell>
                <mxCell id="Ar9rGKO723f08wQL0Or9-384" value="addComponent()" style="text;strokeColor=none;fillColor=none;align=left;verticalAlign=middle;spacingLeft=4;spacingRight=4;overflow=hidden;rotatable=0;points=[[0,0.5],[1,0.5]];portConstraint=eastwest;fontFamily=Helvetica;html=1;" vertex="1" parent="Ar9rGKO723f08wQL0Or9-376">
                    <mxGeometry y="215" width="200" height="25" as="geometry"/>
                </mxCell>
                <mxCell id="Ar9rGKO723f08wQL0Or9-385" value="deleteComponent()" style="text;strokeColor=none;fillColor=none;align=left;verticalAlign=middle;spacingLeft=4;spacingRight=4;overflow=hidden;rotatable=0;points=[[0,0.5],[1,0.5]];portConstraint=eastwest;fontFamily=Helvetica;html=1;" vertex="1" parent="Ar9rGKO723f08wQL0Or9-376">
                    <mxGeometry y="240" width="200" height="25" as="geometry"/>
                </mxCell>
                <mxCell id="Ar9rGKO723f08wQL0Or9-386" value="isContainer()" style="text;strokeColor=none;fillColor=none;align=left;verticalAlign=middle;spacingLeft=4;spacingRight=4;overflow=hidden;rotatable=0;points=[[0,0.5],[1,0.5]];portConstraint=eastwest;fontFamily=Helvetica;html=1;" vertex="1" parent="Ar9rGKO723f08wQL0Or9-376">
                    <mxGeometry y="265" width="200" height="25" as="geometry"/>
                </mxCell>
                <mxCell id="Ar9rGKO723f08wQL0Or9-387" value="getCollection()" style="text;strokeColor=none;fillColor=none;align=left;verticalAlign=middle;spacingLeft=4;spacingRight=4;overflow=hidden;rotatable=0;points=[[0,0.5],[1,0.5]];portConstraint=eastwest;fontFamily=Helvetica;html=1;" vertex="1" parent="Ar9rGKO723f08wQL0Or9-376">
                    <mxGeometry y="290" width="200" height="25" as="geometry"/>
                </mxCell>
                <mxCell id="Ar9rGKO723f08wQL0Or9-388" value="&amp;nbsp;" style="text;strokeColor=none;fillColor=none;align=left;verticalAlign=middle;spacingLeft=4;spacingRight=4;overflow=hidden;rotatable=0;points=[[0,0.5],[1,0.5]];portConstraint=eastwest;fontFamily=Helvetica;html=1;" vertex="1" parent="Ar9rGKO723f08wQL0Or9-376">
                    <mxGeometry y="315" width="200" height="25" as="geometry"/>
                </mxCell>
                <mxCell id="Ar9rGKO723f08wQL0Or9-389" value="" style="line;strokeWidth=1;fillColor=none;align=left;verticalAlign=middle;spacingTop=-1;spacingLeft=3;spacingRight=3;rotatable=0;labelPosition=right;points=[];portConstraint=eastwest;fontFamily=Helvetica;fontColor=#FFFFFF;strokeColor=#FFFFFF;html=1;" vertex="1" parent="Ar9rGKO723f08wQL0Or9-376">
                    <mxGeometry y="340" width="200" height="-10" as="geometry"/>
                </mxCell>
                <mxCell id="Ar9rGKO723f08wQL0Or9-390" value="&lt;b&gt;&lt;font color=&quot;#ffffff&quot;&gt;Dashboard &lt;br&gt;&lt;/font&gt;&lt;/b&gt;&lt;span style=&quot;color: rgb(255 , 255 , 255) ; font-size: 10px&quot;&gt;~~ Class ~~&lt;/span&gt;&lt;b&gt;&lt;font color=&quot;#ffffff&quot;&gt;&lt;br&gt;&lt;/font&gt;&lt;/b&gt;" style="swimlane;fontStyle=0;align=center;verticalAlign=middle;childLayout=stackLayout;horizontal=1;startSize=55;horizontalStack=0;resizeParent=0;resizeParentMax=0;resizeLast=1;collapsible=0;marginBottom=0;html=1;fontFamily=Helvetica;strokeColor=#9673a6;swimlaneFillColor=#E1D5E7;fillColor=#9673A6;rounded=1;" vertex="1" parent="1">
                    <mxGeometry x="960" y="90" width="200" height="1070" as="geometry"/>
                </mxCell>
                <mxCell id="Ar9rGKO723f08wQL0Or9-391" value="attributes" style="text;html=1;strokeColor=none;fillColor=none;align=center;verticalAlign=middle;spacingLeft=4;spacingRight=4;overflow=hidden;rotatable=0;points=[[0,0.5],[1,0.5]];portConstraint=eastwest;fontFamily=Helvetica;" vertex="1" parent="Ar9rGKO723f08wQL0Or9-390">
                    <mxGeometry y="55" width="200" height="20" as="geometry"/>
                </mxCell>
                <mxCell id="Ar9rGKO723f08wQL0Or9-392" value="actionChoiceBox" style="text;strokeColor=none;fillColor=none;align=left;verticalAlign=middle;spacingLeft=4;spacingRight=4;overflow=hidden;rotatable=0;points=[[0,0.5],[1,0.5]];portConstraint=eastwest;fontFamily=Helvetica;html=1;" vertex="1" parent="Ar9rGKO723f08wQL0Or9-390">
                    <mxGeometry y="75" width="200" height="25" as="geometry"/>
                </mxCell>
                <mxCell id="Ar9rGKO723f08wQL0Or9-393" value="launchDroneButton" style="text;strokeColor=none;fillColor=none;align=left;verticalAlign=middle;spacingLeft=4;spacingRight=4;overflow=hidden;rotatable=0;points=[[0,0.5],[1,0.5]];portConstraint=eastwest;fontFamily=Helvetica;html=1;" vertex="1" parent="Ar9rGKO723f08wQL0Or9-390">
                    <mxGeometry y="100" width="200" height="25" as="geometry"/>
                </mxCell>
                <mxCell id="Ar9rGKO723f08wQL0Or9-394" value="itemTreeBorder " style="text;strokeColor=none;fillColor=none;align=left;verticalAlign=middle;spacingLeft=4;spacingRight=4;overflow=hidden;rotatable=0;points=[[0,0.5],[1,0.5]];portConstraint=eastwest;fontFamily=Helvetica;html=1;" vertex="1" parent="Ar9rGKO723f08wQL0Or9-390">
                    <mxGeometry y="125" width="200" height="25" as="geometry"/>
                </mxCell>
                <mxCell id="Ar9rGKO723f08wQL0Or9-395" value="mapPane" style="text;strokeColor=none;fillColor=none;align=left;verticalAlign=middle;spacingLeft=4;spacingRight=4;overflow=hidden;rotatable=0;points=[[0,0.5],[1,0.5]];portConstraint=eastwest;fontFamily=Helvetica;html=1;" vertex="1" parent="Ar9rGKO723f08wQL0Or9-390">
                    <mxGeometry y="150" width="200" height="25" as="geometry"/>
                </mxCell>
                <mxCell id="Ar9rGKO723f08wQL0Or9-396" value="itemComponentTree " style="text;strokeColor=none;fillColor=none;align=left;verticalAlign=middle;spacingLeft=4;spacingRight=4;overflow=hidden;rotatable=0;points=[[0,0.5],[1,0.5]];portConstraint=eastwest;fontFamily=Helvetica;html=1;" vertex="1" parent="Ar9rGKO723f08wQL0Or9-390">
                    <mxGeometry y="175" width="200" height="25" as="geometry"/>
                </mxCell>
                <mxCell id="Ar9rGKO723f08wQL0Or9-397" value="nameColumn " style="text;strokeColor=none;fillColor=none;align=left;verticalAlign=middle;spacingLeft=4;spacingRight=4;overflow=hidden;rotatable=0;points=[[0,0.5],[1,0.5]];portConstraint=eastwest;fontFamily=Helvetica;html=1;" vertex="1" parent="Ar9rGKO723f08wQL0Or9-390">
                    <mxGeometry y="200" width="200" height="25" as="geometry"/>
                </mxCell>
                <mxCell id="Ar9rGKO723f08wQL0Or9-398" value="marketValue" style="text;strokeColor=none;fillColor=none;align=left;verticalAlign=middle;spacingLeft=4;spacingRight=4;overflow=hidden;rotatable=0;points=[[0,0.5],[1,0.5]];portConstraint=eastwest;fontFamily=Helvetica;html=1;" vertex="1" parent="Ar9rGKO723f08wQL0Or9-390">
                    <mxGeometry y="225" width="200" height="25" as="geometry"/>
                </mxCell>
                <mxCell id="Ar9rGKO723f08wQL0Or9-399" value="purchasePrice" style="text;strokeColor=none;fillColor=none;align=left;verticalAlign=middle;spacingLeft=4;spacingRight=4;overflow=hidden;rotatable=0;points=[[0,0.5],[1,0.5]];portConstraint=eastwest;fontFamily=Helvetica;html=1;" vertex="1" parent="Ar9rGKO723f08wQL0Or9-390">
                    <mxGeometry y="250" width="200" height="25" as="geometry"/>
                </mxCell>
                <mxCell id="Ar9rGKO723f08wQL0Or9-400" value="drone " style="text;strokeColor=none;fillColor=none;align=left;verticalAlign=middle;spacingLeft=4;spacingRight=4;overflow=hidden;rotatable=0;points=[[0,0.5],[1,0.5]];portConstraint=eastwest;fontFamily=Helvetica;html=1;" vertex="1" parent="Ar9rGKO723f08wQL0Or9-390">
                    <mxGeometry y="275" width="200" height="25" as="geometry"/>
                </mxCell>
                <mxCell id="Ar9rGKO723f08wQL0Or9-401" value="rectangles " style="text;strokeColor=none;fillColor=none;align=left;verticalAlign=middle;spacingLeft=4;spacingRight=4;overflow=hidden;rotatable=0;points=[[0,0.5],[1,0.5]];portConstraint=eastwest;fontFamily=Helvetica;html=1;" vertex="1" parent="Ar9rGKO723f08wQL0Or9-390">
                    <mxGeometry y="300" width="200" height="28" as="geometry"/>
                </mxCell>
                <mxCell id="Ar9rGKO723f08wQL0Or9-402" value="labels " style="text;strokeColor=none;fillColor=none;align=left;verticalAlign=middle;spacingLeft=4;spacingRight=4;overflow=hidden;rotatable=0;points=[[0,0.5],[1,0.5]];portConstraint=eastwest;fontFamily=Helvetica;html=1;" vertex="1" parent="Ar9rGKO723f08wQL0Or9-390">
                    <mxGeometry y="328" width="200" height="25" as="geometry"/>
                </mxCell>
                <mxCell id="Ar9rGKO723f08wQL0Or9-403" value="collectionContainer" style="text;strokeColor=none;fillColor=none;align=left;verticalAlign=middle;spacingLeft=4;spacingRight=4;overflow=hidden;rotatable=0;points=[[0,0.5],[1,0.5]];portConstraint=eastwest;fontFamily=Helvetica;html=1;" vertex="1" parent="Ar9rGKO723f08wQL0Or9-390">
                    <mxGeometry y="353" width="200" height="25" as="geometry"/>
                </mxCell>
                <mxCell id="Ar9rGKO723f08wQL0Or9-404" value="main" style="text;strokeColor=none;fillColor=none;align=left;verticalAlign=middle;spacingLeft=4;spacingRight=4;overflow=hidden;rotatable=0;points=[[0,0.5],[1,0.5]];portConstraint=eastwest;fontFamily=Helvetica;html=1;" vertex="1" parent="Ar9rGKO723f08wQL0Or9-390">
                    <mxGeometry y="378" width="200" height="25" as="geometry"/>
                </mxCell>
                <mxCell id="Ar9rGKO723f08wQL0Or9-405" value="instance" style="text;strokeColor=none;fillColor=none;align=left;verticalAlign=middle;spacingLeft=4;spacingRight=4;overflow=hidden;rotatable=0;points=[[0,0.5],[1,0.5]];portConstraint=eastwest;fontFamily=Helvetica;html=1;" vertex="1" parent="Ar9rGKO723f08wQL0Or9-390">
                    <mxGeometry y="403" width="200" height="25" as="geometry"/>
                </mxCell>
                <mxCell id="Ar9rGKO723f08wQL0Or9-406" value="max_height" style="text;fillColor=#e1d5e7;align=left;verticalAlign=middle;spacingLeft=4;spacingRight=4;overflow=hidden;rotatable=0;points=[[0,0.5],[1,0.5]];portConstraint=eastwest;fontFamily=Helvetica;html=1;" vertex="1" parent="Ar9rGKO723f08wQL0Or9-390">
                    <mxGeometry y="428" width="200" height="25" as="geometry"/>
                </mxCell>
                <mxCell id="Ar9rGKO723f08wQL0Or9-407" value="" style="line;strokeWidth=1;fillColor=none;align=left;verticalAlign=middle;spacingTop=-1;spacingLeft=3;spacingRight=3;rotatable=0;labelPosition=right;points=[];portConstraint=eastwest;fontFamily=Helvetica;html=1;" vertex="1" parent="Ar9rGKO723f08wQL0Or9-390">
                    <mxGeometry y="453" width="200" height="12" as="geometry"/>
                </mxCell>
                <mxCell id="Ar9rGKO723f08wQL0Or9-408" value="operations" style="text;strokeColor=none;fillColor=none;align=center;verticalAlign=middle;spacingLeft=4;spacingRight=4;overflow=hidden;rotatable=0;points=[[0,0.5],[1,0.5]];portConstraint=eastwest;fontFamily=Helvetica;html=1;" vertex="1" parent="Ar9rGKO723f08wQL0Or9-390">
                    <mxGeometry y="465" width="200" height="20" as="geometry"/>
                </mxCell>
                <mxCell id="Ar9rGKO723f08wQL0Or9-409" value="Dashboard()" style="text;strokeColor=none;fillColor=none;align=left;verticalAlign=middle;spacingLeft=4;spacingRight=4;overflow=hidden;rotatable=0;points=[[0,0.5],[1,0.5]];portConstraint=eastwest;fontFamily=Helvetica;html=1;" vertex="1" parent="Ar9rGKO723f08wQL0Or9-390">
                    <mxGeometry y="485" width="200" height="25" as="geometry"/>
                </mxCell>
                <mxCell id="Ar9rGKO723f08wQL0Or9-410" value="getInstance()" style="text;strokeColor=none;fillColor=none;align=left;verticalAlign=middle;spacingLeft=4;spacingRight=4;overflow=hidden;rotatable=0;points=[[0,0.5],[1,0.5]];portConstraint=eastwest;fontFamily=Helvetica;html=1;" vertex="1" parent="Ar9rGKO723f08wQL0Or9-390">
                    <mxGeometry y="510" width="200" height="25" as="geometry"/>
                </mxCell>
                <mxCell id="Ar9rGKO723f08wQL0Or9-411" value="initialize()" style="text;strokeColor=none;fillColor=none;align=left;verticalAlign=middle;spacingLeft=4;spacingRight=4;overflow=hidden;rotatable=0;points=[[0,0.5],[1,0.5]];portConstraint=eastwest;fontFamily=Helvetica;html=1;" vertex="1" parent="Ar9rGKO723f08wQL0Or9-390">
                    <mxGeometry y="535" width="200" height="25" as="geometry"/>
                </mxCell>
                <mxCell id="Ar9rGKO723f08wQL0Or9-412" value="setDrone()" style="text;strokeColor=none;fillColor=none;align=left;verticalAlign=middle;spacingLeft=4;spacingRight=4;overflow=hidden;rotatable=0;points=[[0,0.5],[1,0.5]];portConstraint=eastwest;fontFamily=Helvetica;html=1;" vertex="1" parent="Ar9rGKO723f08wQL0Or9-390">
                    <mxGeometry y="560" width="200" height="25" as="geometry"/>
                </mxCell>
                <mxCell id="Ar9rGKO723f08wQL0Or9-413" value="setMain(Main main)" style="text;strokeColor=none;fillColor=none;align=left;verticalAlign=middle;spacingLeft=4;spacingRight=4;overflow=hidden;rotatable=0;points=[[0,0.5],[1,0.5]];portConstraint=eastwest;fontFamily=Helvetica;html=1;" vertex="1" parent="Ar9rGKO723f08wQL0Or9-390">
                    <mxGeometry y="585" width="200" height="25" as="geometry"/>
                </mxCell>
                <mxCell id="Ar9rGKO723f08wQL0Or9-414" value="VisitValueLabels()" style="text;strokeColor=none;fillColor=none;align=left;verticalAlign=middle;spacingLeft=4;spacingRight=4;overflow=hidden;rotatable=0;points=[[0,0.5],[1,0.5]];portConstraint=eastwest;fontFamily=Helvetica;html=1;" vertex="1" parent="Ar9rGKO723f08wQL0Or9-390">
                    <mxGeometry y="610" width="200" height="25" as="geometry"/>
                </mxCell>
                <mxCell id="Ar9rGKO723f08wQL0Or9-415" value="getRectangleGroup()" style="text;strokeColor=none;fillColor=none;align=left;verticalAlign=middle;spacingLeft=4;spacingRight=4;overflow=hidden;rotatable=0;points=[[0,0.5],[1,0.5]];portConstraint=eastwest;fontFamily=Helvetica;html=1;" vertex="1" parent="Ar9rGKO723f08wQL0Or9-390">
                    <mxGeometry y="635" width="200" height="25" as="geometry"/>
                </mxCell>
                <mxCell id="Ar9rGKO723f08wQL0Or9-416" value="getLabelGroup()" style="text;strokeColor=none;fillColor=none;align=left;verticalAlign=middle;spacingLeft=4;spacingRight=4;overflow=hidden;rotatable=0;points=[[0,0.5],[1,0.5]];portConstraint=eastwest;fontFamily=Helvetica;html=1;" vertex="1" parent="Ar9rGKO723f08wQL0Or9-390">
                    <mxGeometry y="660" width="200" height="25" as="geometry"/>
                </mxCell>
                <mxCell id="Ar9rGKO723f08wQL0Or9-417" value="getRectangles()" style="text;strokeColor=none;fillColor=none;align=left;verticalAlign=middle;spacingLeft=4;spacingRight=4;overflow=hidden;rotatable=0;points=[[0,0.5],[1,0.5]];portConstraint=eastwest;fontFamily=Helvetica;html=1;" vertex="1" parent="Ar9rGKO723f08wQL0Or9-390">
                    <mxGeometry y="685" width="200" height="25" as="geometry"/>
                </mxCell>
                <mxCell id="Ar9rGKO723f08wQL0Or9-418" value="getLabels()" style="text;strokeColor=none;fillColor=none;align=left;verticalAlign=middle;spacingLeft=4;spacingRight=4;overflow=hidden;rotatable=0;points=[[0,0.5],[1,0.5]];portConstraint=eastwest;fontFamily=Helvetica;html=1;" vertex="1" parent="Ar9rGKO723f08wQL0Or9-390">
                    <mxGeometry y="710" width="200" height="25" as="geometry"/>
                </mxCell>
                <mxCell id="Ar9rGKO723f08wQL0Or9-419" value="getMaxHeight()" style="text;strokeColor=none;fillColor=none;align=left;verticalAlign=middle;spacingLeft=4;spacingRight=4;overflow=hidden;rotatable=0;points=[[0,0.5],[1,0.5]];portConstraint=eastwest;fontFamily=Helvetica;html=1;" vertex="1" parent="Ar9rGKO723f08wQL0Or9-390">
                    <mxGeometry y="735" width="200" height="25" as="geometry"/>
                </mxCell>
                <mxCell id="Ar9rGKO723f08wQL0Or9-420" value="deleteAllDescendants()" style="text;strokeColor=none;fillColor=none;align=left;verticalAlign=middle;spacingLeft=4;spacingRight=4;overflow=hidden;rotatable=0;points=[[0,0.5],[1,0.5]];portConstraint=eastwest;fontFamily=Helvetica;html=1;" vertex="1" parent="Ar9rGKO723f08wQL0Or9-390">
                    <mxGeometry y="760" width="200" height="25" as="geometry"/>
                </mxCell>
                <mxCell id="Ar9rGKO723f08wQL0Or9-421" value="refreshMap()" style="text;strokeColor=none;fillColor=none;align=left;verticalAlign=middle;spacingLeft=4;spacingRight=4;overflow=hidden;rotatable=0;points=[[0,0.5],[1,0.5]];portConstraint=eastwest;fontFamily=Helvetica;html=1;" vertex="1" parent="Ar9rGKO723f08wQL0Or9-390">
                    <mxGeometry y="785" width="200" height="25" as="geometry"/>
                </mxCell>
                <mxCell id="Ar9rGKO723f08wQL0Or9-422" value="launchDrone()" style="text;strokeColor=none;fillColor=none;align=left;verticalAlign=middle;spacingLeft=4;spacingRight=4;overflow=hidden;rotatable=0;points=[[0,0.5],[1,0.5]];portConstraint=eastwest;fontFamily=Helvetica;html=1;" vertex="1" parent="Ar9rGKO723f08wQL0Or9-390">
                    <mxGeometry y="810" width="200" height="25" as="geometry"/>
                </mxCell>
                <mxCell id="Ar9rGKO723f08wQL0Or9-423" value="launchAnimation()" style="text;strokeColor=none;fillColor=none;align=left;verticalAlign=middle;spacingLeft=4;spacingRight=4;overflow=hidden;rotatable=0;points=[[0,0.5],[1,0.5]];portConstraint=eastwest;fontFamily=Helvetica;html=1;" vertex="1" parent="Ar9rGKO723f08wQL0Or9-390">
                    <mxGeometry y="835" width="200" height="25" as="geometry"/>
                </mxCell>
                <mxCell id="Ar9rGKO723f08wQL0Or9-424" value="handleDeleteItemComponent()" style="text;strokeColor=none;fillColor=none;align=left;verticalAlign=middle;spacingLeft=4;spacingRight=4;overflow=hidden;rotatable=0;points=[[0,0.5],[1,0.5]];portConstraint=eastwest;fontFamily=Helvetica;html=1;" vertex="1" parent="Ar9rGKO723f08wQL0Or9-390">
                    <mxGeometry y="860" width="200" height="25" as="geometry"/>
                </mxCell>
                <mxCell id="Ar9rGKO723f08wQL0Or9-425" value="handleEditItemComponent()" style="text;strokeColor=none;fillColor=none;align=left;verticalAlign=middle;spacingLeft=4;spacingRight=4;overflow=hidden;rotatable=0;points=[[0,0.5],[1,0.5]];portConstraint=eastwest;fontFamily=Helvetica;html=1;" vertex="1" parent="Ar9rGKO723f08wQL0Or9-390">
                    <mxGeometry y="885" width="200" height="25" as="geometry"/>
                </mxCell>
                <mxCell id="Ar9rGKO723f08wQL0Or9-426" value="handleNewItem()" style="text;strokeColor=none;fillColor=none;align=left;verticalAlign=middle;spacingLeft=4;spacingRight=4;overflow=hidden;rotatable=0;points=[[0,0.5],[1,0.5]];portConstraint=eastwest;fontFamily=Helvetica;html=1;" vertex="1" parent="Ar9rGKO723f08wQL0Or9-390">
                    <mxGeometry y="910" width="200" height="25" as="geometry"/>
                </mxCell>
                <mxCell id="Ar9rGKO723f08wQL0Or9-427" value="handleNewItemContainer()" style="text;strokeColor=none;fillColor=none;align=left;verticalAlign=middle;spacingLeft=4;spacingRight=4;overflow=hidden;rotatable=0;points=[[0,0.5],[1,0.5]];portConstraint=eastwest;fontFamily=Helvetica;html=1;" vertex="1" parent="Ar9rGKO723f08wQL0Or9-390">
                    <mxGeometry y="935" width="200" height="25" as="geometry"/>
                </mxCell>
                <mxCell id="Ar9rGKO723f08wQL0Or9-428" value="handleViewItemComponent()" style="text;strokeColor=none;fillColor=none;align=left;verticalAlign=middle;spacingLeft=4;spacingRight=4;overflow=hidden;rotatable=0;points=[[0,0.5],[1,0.5]];portConstraint=eastwest;fontFamily=Helvetica;html=1;" vertex="1" parent="Ar9rGKO723f08wQL0Or9-390">
                    <mxGeometry y="960" width="200" height="25" as="geometry"/>
                </mxCell>
                <mxCell id="Ar9rGKO723f08wQL0Or9-429" value="noSelectionAlert()" style="text;strokeColor=none;fillColor=none;align=left;verticalAlign=middle;spacingLeft=4;spacingRight=4;overflow=hidden;rotatable=0;points=[[0,0.5],[1,0.5]];portConstraint=eastwest;fontFamily=Helvetica;html=1;" vertex="1" parent="Ar9rGKO723f08wQL0Or9-390">
                    <mxGeometry y="985" width="200" height="25" as="geometry"/>
                </mxCell>
                <mxCell id="Ar9rGKO723f08wQL0Or9-430" value="cannotAddItemAlert()" style="text;strokeColor=none;fillColor=none;align=left;verticalAlign=middle;spacingLeft=4;spacingRight=4;overflow=hidden;rotatable=0;points=[[0,0.5],[1,0.5]];portConstraint=eastwest;fontFamily=Helvetica;html=1;" vertex="1" parent="Ar9rGKO723f08wQL0Or9-390">
                    <mxGeometry y="1010" width="200" height="25" as="geometry"/>
                </mxCell>
                <mxCell id="Ar9rGKO723f08wQL0Or9-431" value="cannotEditRootAlert()" style="text;strokeColor=none;fillColor=none;align=left;verticalAlign=middle;spacingLeft=4;spacingRight=4;overflow=hidden;rotatable=0;points=[[0,0.5],[1,0.5]];portConstraint=eastwest;fontFamily=Helvetica;html=1;" vertex="1" parent="Ar9rGKO723f08wQL0Or9-390">
                    <mxGeometry y="1035" width="200" height="25" as="geometry"/>
                </mxCell>
                <mxCell id="Ar9rGKO723f08wQL0Or9-432" value="&amp;nbsp;" style="text;strokeColor=none;fillColor=none;align=left;verticalAlign=middle;spacingLeft=4;spacingRight=4;overflow=hidden;rotatable=0;points=[[0,0.5],[1,0.5]];portConstraint=eastwest;fontFamily=Helvetica;html=1;" vertex="1" parent="Ar9rGKO723f08wQL0Or9-390">
                    <mxGeometry y="1060" width="200" height="25" as="geometry"/>
                </mxCell>
                <mxCell id="Ar9rGKO723f08wQL0Or9-433" value="" style="line;strokeWidth=1;fillColor=none;align=left;verticalAlign=middle;spacingTop=-1;spacingLeft=3;spacingRight=3;rotatable=0;labelPosition=right;points=[];portConstraint=eastwest;fontFamily=Helvetica;strokeColor=#FFFFFF;" vertex="1" parent="Ar9rGKO723f08wQL0Or9-390">
                    <mxGeometry y="1085" width="200" height="-15" as="geometry"/>
                </mxCell>
                <mxCell id="Ar9rGKO723f08wQL0Or9-434" value="&lt;b&gt;&lt;font color=&quot;#ffffff&quot;&gt;Item-Container&amp;nbsp;&lt;br&gt;&lt;/font&gt;&lt;/b&gt;&lt;span style=&quot;color: rgb(255 , 255 , 255) ; font-size: 10px&quot;&gt;~~ Class ~~&lt;/span&gt;&lt;b&gt;&lt;font color=&quot;#ffffff&quot;&gt;&lt;br&gt;&lt;/font&gt;&lt;/b&gt;" style="swimlane;fontStyle=0;align=center;verticalAlign=middle;childLayout=stackLayout;horizontal=1;startSize=55;horizontalStack=0;resizeParent=0;resizeParentMax=0;resizeLast=1;collapsible=0;marginBottom=0;fontFamily=Helvetica;html=1;strokeColor=#9673a6;swimlaneFillColor=#E1D5E7;fillColor=#9673A6;rounded=1;" vertex="1" parent="1">
                    <mxGeometry x="400" y="980" width="200" height="310" as="geometry"/>
                </mxCell>
                <mxCell id="Ar9rGKO723f08wQL0Or9-435" value="attributes" style="text;strokeColor=none;fillColor=none;align=center;verticalAlign=middle;spacingLeft=4;spacingRight=4;overflow=hidden;rotatable=0;points=[[0,0.5],[1,0.5]];portConstraint=eastwest;fontFamily=Helvetica;html=1;" vertex="1" parent="Ar9rGKO723f08wQL0Or9-434">
                    <mxGeometry y="55" width="200" height="20" as="geometry"/>
                </mxCell>
                <mxCell id="Ar9rGKO723f08wQL0Or9-436" value="extends Component" style="text;strokeColor=none;fillColor=none;align=left;verticalAlign=middle;spacingLeft=4;spacingRight=4;overflow=hidden;rotatable=0;points=[[0,0.5],[1,0.5]];portConstraint=eastwest;fontFamily=Helvetica;fontSize=11;html=1;" vertex="1" parent="Ar9rGKO723f08wQL0Or9-434">
                    <mxGeometry y="75" width="200" height="25" as="geometry"/>
                </mxCell>
                <mxCell id="Ar9rGKO723f08wQL0Or9-437" value="componentsCollection" style="text;strokeColor=none;fillColor=none;align=left;verticalAlign=middle;spacingLeft=4;spacingRight=4;overflow=hidden;rotatable=0;points=[[0,0.5],[1,0.5]];portConstraint=eastwest;fontFamily=Helvetica;html=1;" vertex="1" parent="Ar9rGKO723f08wQL0Or9-434">
                    <mxGeometry y="100" width="200" height="25" as="geometry"/>
                </mxCell>
                <mxCell id="Ar9rGKO723f08wQL0Or9-438" value="" style="line;strokeWidth=1;fillColor=none;align=left;verticalAlign=middle;spacingTop=-1;spacingLeft=3;spacingRight=3;rotatable=0;labelPosition=right;points=[];portConstraint=eastwest;fontFamily=Helvetica;html=1;" vertex="1" parent="Ar9rGKO723f08wQL0Or9-434">
                    <mxGeometry y="125" width="200" height="12" as="geometry"/>
                </mxCell>
                <mxCell id="Ar9rGKO723f08wQL0Or9-439" value="operations" style="text;strokeColor=none;fillColor=none;align=center;verticalAlign=middle;spacingLeft=4;spacingRight=4;overflow=hidden;rotatable=0;points=[[0,0.5],[1,0.5]];portConstraint=eastwest;fontFamily=Helvetica;html=1;" vertex="1" parent="Ar9rGKO723f08wQL0Or9-434">
                    <mxGeometry y="137" width="200" height="23" as="geometry"/>
                </mxCell>
                <mxCell id="Ar9rGKO723f08wQL0Or9-440" value="ItemContainer()" style="text;strokeColor=none;fillColor=none;align=left;verticalAlign=middle;spacingLeft=4;spacingRight=4;overflow=hidden;rotatable=0;points=[[0,0.5],[1,0.5]];portConstraint=eastwest;fontFamily=Helvetica;html=1;" vertex="1" parent="Ar9rGKO723f08wQL0Or9-434">
                    <mxGeometry y="160" width="200" height="25" as="geometry"/>
                </mxCell>
                <mxCell id="Ar9rGKO723f08wQL0Or9-441" value="getCollection()" style="text;strokeColor=none;fillColor=none;align=left;verticalAlign=middle;spacingLeft=4;spacingRight=4;overflow=hidden;rotatable=0;points=[[0,0.5],[1,0.5]];portConstraint=eastwest;fontFamily=Helvetica;html=1;" vertex="1" parent="Ar9rGKO723f08wQL0Or9-434">
                    <mxGeometry y="185" width="200" height="25" as="geometry"/>
                </mxCell>
                <mxCell id="Ar9rGKO723f08wQL0Or9-442" value="addComponent()&amp;nbsp;" style="text;strokeColor=none;fillColor=none;align=left;verticalAlign=middle;spacingLeft=4;spacingRight=4;overflow=hidden;rotatable=0;points=[[0,0.5],[1,0.5]];portConstraint=eastwest;fontFamily=Helvetica;html=1;" vertex="1" parent="Ar9rGKO723f08wQL0Or9-434">
                    <mxGeometry y="210" width="200" height="25" as="geometry"/>
                </mxCell>
                <mxCell id="Ar9rGKO723f08wQL0Or9-443" value="deleteComponent()" style="text;strokeColor=none;fillColor=none;align=left;verticalAlign=middle;spacingLeft=4;spacingRight=4;overflow=hidden;rotatable=0;points=[[0,0.5],[1,0.5]];portConstraint=eastwest;fontFamily=Helvetica;html=1;" vertex="1" parent="Ar9rGKO723f08wQL0Or9-434">
                    <mxGeometry y="235" width="200" height="20" as="geometry"/>
                </mxCell>
                <mxCell id="Ar9rGKO723f08wQL0Or9-444" value="get/setMarketValue()" style="text;strokeColor=none;fillColor=none;align=left;verticalAlign=middle;spacingLeft=4;spacingRight=4;overflow=hidden;rotatable=0;points=[[0,0.5],[1,0.5]];portConstraint=eastwest;fontFamily=Helvetica;html=1;" vertex="1" parent="Ar9rGKO723f08wQL0Or9-434">
                    <mxGeometry y="255" width="200" height="20" as="geometry"/>
                </mxCell>
                <mxCell id="Ar9rGKO723f08wQL0Or9-445" value="isContainer()" style="text;strokeColor=none;fillColor=none;align=left;verticalAlign=middle;spacingLeft=4;spacingRight=4;overflow=hidden;rotatable=0;points=[[0,0.5],[1,0.5]];portConstraint=eastwest;fontFamily=Helvetica;html=1;" vertex="1" parent="Ar9rGKO723f08wQL0Or9-434">
                    <mxGeometry y="275" width="200" height="20" as="geometry"/>
                </mxCell>
                <mxCell id="Ar9rGKO723f08wQL0Or9-446" value="&amp;nbsp;" style="text;strokeColor=none;fillColor=none;align=left;verticalAlign=middle;spacingLeft=4;spacingRight=4;overflow=hidden;rotatable=0;points=[[0,0.5],[1,0.5]];portConstraint=eastwest;fontFamily=Helvetica;html=1;" vertex="1" parent="Ar9rGKO723f08wQL0Or9-434">
                    <mxGeometry y="295" width="200" height="25" as="geometry"/>
                </mxCell>
                <mxCell id="Ar9rGKO723f08wQL0Or9-447" value="" style="line;strokeWidth=1;fillColor=none;align=left;verticalAlign=middle;spacingTop=-1;spacingLeft=3;spacingRight=3;rotatable=0;labelPosition=right;points=[];portConstraint=eastwest;fontFamily=Helvetica;fontColor=#FFFFFF;strokeColor=#FFFFFF;html=1;" vertex="1" parent="Ar9rGKO723f08wQL0Or9-434">
                    <mxGeometry y="320" width="200" height="-10" as="geometry"/>
                </mxCell>
                <mxCell id="Ar9rGKO723f08wQL0Or9-448" value="&lt;font color=&quot;#ffffff&quot;&gt;&lt;b&gt;Item Edit Dialog&amp;nbsp;&lt;/b&gt;&lt;/font&gt;&lt;span style=&quot;color: rgb(255 , 255 , 255)&quot;&gt;&lt;font size=&quot;1&quot;&gt;&lt;b style=&quot;font-size: 12px&quot;&gt;Controller&lt;/b&gt;&lt;/font&gt;&lt;/span&gt;&lt;font color=&quot;#ffffff&quot;&gt;&lt;br&gt;&lt;font style=&quot;font-size: 10px&quot;&gt;~~ Class ~~&lt;/font&gt;&lt;/font&gt;" style="swimlane;fontStyle=0;align=center;verticalAlign=middle;childLayout=stackLayout;horizontal=1;startSize=55;horizontalStack=0;resizeParent=0;resizeParentMax=0;resizeLast=1;collapsible=0;marginBottom=0;html=1;fontFamily=Helvetica;whiteSpace=wrap;strokeColor=#9673a6;swimlaneFillColor=#E1D5E7;fillColor=#9673A6;rounded=1;" vertex="1" parent="1">
                    <mxGeometry x="535" y="180" width="200" height="570" as="geometry"/>
                </mxCell>
                <mxCell id="Ar9rGKO723f08wQL0Or9-449" value="attributes" style="text;html=1;strokeColor=none;fillColor=none;align=center;verticalAlign=middle;spacingLeft=4;spacingRight=4;overflow=hidden;rotatable=0;points=[[0,0.5],[1,0.5]];portConstraint=eastwest;fontFamily=Helvetica;" vertex="1" parent="Ar9rGKO723f08wQL0Or9-448">
                    <mxGeometry y="55" width="200" height="20" as="geometry"/>
                </mxCell>
                <mxCell id="Ar9rGKO723f08wQL0Or9-450" value="nameField" style="text;strokeColor=none;fillColor=none;align=left;verticalAlign=middle;spacingLeft=4;spacingRight=4;overflow=hidden;rotatable=0;points=[[0,0.5],[1,0.5]];portConstraint=eastwest;fontFamily=Helvetica;html=1;" vertex="1" parent="Ar9rGKO723f08wQL0Or9-448">
                    <mxGeometry y="75" width="200" height="25" as="geometry"/>
                </mxCell>
                <mxCell id="Ar9rGKO723f08wQL0Or9-451" value="priceField" style="text;strokeColor=none;fillColor=none;align=left;verticalAlign=middle;spacingLeft=4;spacingRight=4;overflow=hidden;rotatable=0;points=[[0,0.5],[1,0.5]];portConstraint=eastwest;fontFamily=Helvetica;html=1;" vertex="1" parent="Ar9rGKO723f08wQL0Or9-448">
                    <mxGeometry y="100" width="200" height="25" as="geometry"/>
                </mxCell>
                <mxCell id="Ar9rGKO723f08wQL0Or9-452" value="marketValueField()" style="text;strokeColor=none;fillColor=none;align=left;verticalAlign=middle;spacingLeft=4;spacingRight=4;overflow=hidden;rotatable=0;points=[[0,0.5],[1,0.5]];portConstraint=eastwest;fontFamily=Helvetica;html=1;" vertex="1" parent="Ar9rGKO723f08wQL0Or9-448">
                    <mxGeometry y="125" width="200" height="25" as="geometry"/>
                </mxCell>
                <mxCell id="Ar9rGKO723f08wQL0Or9-453" value="xLocationField" style="text;strokeColor=none;fillColor=none;align=left;verticalAlign=middle;spacingLeft=4;spacingRight=4;overflow=hidden;rotatable=0;points=[[0,0.5],[1,0.5]];portConstraint=eastwest;fontFamily=Helvetica;html=1;" vertex="1" parent="Ar9rGKO723f08wQL0Or9-448">
                    <mxGeometry y="150" width="200" height="25" as="geometry"/>
                </mxCell>
                <mxCell id="Ar9rGKO723f08wQL0Or9-454" value="yLocationField" style="text;strokeColor=none;fillColor=none;align=left;verticalAlign=middle;spacingLeft=4;spacingRight=4;overflow=hidden;rotatable=0;points=[[0,0.5],[1,0.5]];portConstraint=eastwest;fontFamily=Helvetica;html=1;" vertex="1" parent="Ar9rGKO723f08wQL0Or9-448">
                    <mxGeometry y="175" width="200" height="25" as="geometry"/>
                </mxCell>
                <mxCell id="Ar9rGKO723f08wQL0Or9-455" value="lengthField" style="text;strokeColor=none;fillColor=none;align=left;verticalAlign=middle;spacingLeft=4;spacingRight=4;overflow=hidden;rotatable=0;points=[[0,0.5],[1,0.5]];portConstraint=eastwest;fontFamily=Helvetica;html=1;" vertex="1" parent="Ar9rGKO723f08wQL0Or9-448">
                    <mxGeometry y="200" width="200" height="25" as="geometry"/>
                </mxCell>
                <mxCell id="Ar9rGKO723f08wQL0Or9-456" value="widthField" style="text;strokeColor=none;fillColor=none;align=left;verticalAlign=middle;spacingLeft=4;spacingRight=4;overflow=hidden;rotatable=0;points=[[0,0.5],[1,0.5]];portConstraint=eastwest;fontFamily=Helvetica;html=1;" vertex="1" parent="Ar9rGKO723f08wQL0Or9-448">
                    <mxGeometry y="225" width="200" height="25" as="geometry"/>
                </mxCell>
                <mxCell id="Ar9rGKO723f08wQL0Or9-457" value="heightField" style="text;strokeColor=none;fillColor=none;align=left;verticalAlign=middle;spacingLeft=4;spacingRight=4;overflow=hidden;rotatable=0;points=[[0,0.5],[1,0.5]];portConstraint=eastwest;fontFamily=Helvetica;html=1;" vertex="1" parent="Ar9rGKO723f08wQL0Or9-448">
                    <mxGeometry y="250" width="200" height="25" as="geometry"/>
                </mxCell>
                <mxCell id="Ar9rGKO723f08wQL0Or9-458" value="dialogStage" style="text;strokeColor=none;fillColor=none;align=left;verticalAlign=middle;spacingLeft=4;spacingRight=4;overflow=hidden;rotatable=0;points=[[0,0.5],[1,0.5]];portConstraint=eastwest;fontFamily=Helvetica;html=1;" vertex="1" parent="Ar9rGKO723f08wQL0Or9-448">
                    <mxGeometry y="275" width="200" height="25" as="geometry"/>
                </mxCell>
                <mxCell id="Ar9rGKO723f08wQL0Or9-459" value="itemComponent " style="text;strokeColor=none;fillColor=none;align=left;verticalAlign=middle;spacingLeft=4;spacingRight=4;overflow=hidden;rotatable=0;points=[[0,0.5],[1,0.5]];portConstraint=eastwest;fontFamily=Helvetica;html=1;" vertex="1" parent="Ar9rGKO723f08wQL0Or9-448">
                    <mxGeometry y="300" width="200" height="25" as="geometry"/>
                </mxCell>
                <mxCell id="Ar9rGKO723f08wQL0Or9-460" value="okClicked" style="text;strokeColor=none;fillColor=none;align=left;verticalAlign=middle;spacingLeft=4;spacingRight=4;overflow=hidden;rotatable=0;points=[[0,0.5],[1,0.5]];portConstraint=eastwest;fontFamily=Helvetica;html=1;" vertex="1" parent="Ar9rGKO723f08wQL0Or9-448">
                    <mxGeometry y="325" width="200" height="25" as="geometry"/>
                </mxCell>
                <mxCell id="Ar9rGKO723f08wQL0Or9-461" value="" style="line;strokeWidth=1;fillColor=none;align=left;verticalAlign=middle;spacingTop=-1;spacingLeft=3;spacingRight=3;rotatable=0;labelPosition=right;points=[];portConstraint=eastwest;fontFamily=Helvetica;html=1;" vertex="1" parent="Ar9rGKO723f08wQL0Or9-448">
                    <mxGeometry y="350" width="200" height="12" as="geometry"/>
                </mxCell>
                <mxCell id="Ar9rGKO723f08wQL0Or9-462" value="operations" style="text;strokeColor=none;fillColor=none;align=center;verticalAlign=middle;spacingLeft=4;spacingRight=4;overflow=hidden;rotatable=0;points=[[0,0.5],[1,0.5]];portConstraint=eastwest;fontFamily=Helvetica;html=1;" vertex="1" parent="Ar9rGKO723f08wQL0Or9-448">
                    <mxGeometry y="362" width="200" height="23" as="geometry"/>
                </mxCell>
                <mxCell id="Ar9rGKO723f08wQL0Or9-463" value="initialize()" style="text;strokeColor=none;fillColor=none;align=left;verticalAlign=middle;spacingLeft=4;spacingRight=4;overflow=hidden;rotatable=0;points=[[0,0.5],[1,0.5]];portConstraint=eastwest;fontFamily=Helvetica;html=1;" vertex="1" parent="Ar9rGKO723f08wQL0Or9-448">
                    <mxGeometry y="385" width="200" height="25" as="geometry"/>
                </mxCell>
                <mxCell id="Ar9rGKO723f08wQL0Or9-464" value="setDialogStage()" style="text;strokeColor=none;fillColor=none;align=left;verticalAlign=middle;spacingLeft=4;spacingRight=4;overflow=hidden;rotatable=0;points=[[0,0.5],[1,0.5]];portConstraint=eastwest;fontFamily=Helvetica;html=1;" vertex="1" parent="Ar9rGKO723f08wQL0Or9-448">
                    <mxGeometry y="410" width="200" height="25" as="geometry"/>
                </mxCell>
                <mxCell id="Ar9rGKO723f08wQL0Or9-465" value="setItemComponent()" style="text;strokeColor=none;fillColor=none;align=left;verticalAlign=middle;spacingLeft=4;spacingRight=4;overflow=hidden;rotatable=0;points=[[0,0.5],[1,0.5]];portConstraint=eastwest;fontFamily=Helvetica;html=1;" vertex="1" parent="Ar9rGKO723f08wQL0Or9-448">
                    <mxGeometry y="435" width="200" height="25" as="geometry"/>
                </mxCell>
                <mxCell id="Ar9rGKO723f08wQL0Or9-466" value="isOkClicked() " style="text;strokeColor=none;fillColor=none;align=left;verticalAlign=middle;spacingLeft=4;spacingRight=4;overflow=hidden;rotatable=0;points=[[0,0.5],[1,0.5]];portConstraint=eastwest;fontFamily=Helvetica;html=1;" vertex="1" parent="Ar9rGKO723f08wQL0Or9-448">
                    <mxGeometry y="460" width="200" height="25" as="geometry"/>
                </mxCell>
                <mxCell id="Ar9rGKO723f08wQL0Or9-467" value="handleOk()" style="text;strokeColor=none;fillColor=none;align=left;verticalAlign=middle;spacingLeft=4;spacingRight=4;overflow=hidden;rotatable=0;points=[[0,0.5],[1,0.5]];portConstraint=eastwest;fontFamily=Helvetica;html=1;" vertex="1" parent="Ar9rGKO723f08wQL0Or9-448">
                    <mxGeometry y="485" width="200" height="25" as="geometry"/>
                </mxCell>
                <mxCell id="Ar9rGKO723f08wQL0Or9-468" value="handleCancel()" style="text;strokeColor=none;fillColor=none;align=left;verticalAlign=middle;spacingLeft=4;spacingRight=4;overflow=hidden;rotatable=0;points=[[0,0.5],[1,0.5]];portConstraint=eastwest;fontFamily=Helvetica;html=1;" vertex="1" parent="Ar9rGKO723f08wQL0Or9-448">
                    <mxGeometry y="510" width="200" height="25" as="geometry"/>
                </mxCell>
                <mxCell id="Ar9rGKO723f08wQL0Or9-469" value="isInputValid()" style="text;strokeColor=none;fillColor=none;align=left;verticalAlign=middle;spacingLeft=4;spacingRight=4;overflow=hidden;rotatable=0;points=[[0,0.5],[1,0.5]];portConstraint=eastwest;fontFamily=Helvetica;html=1;" vertex="1" parent="Ar9rGKO723f08wQL0Or9-448">
                    <mxGeometry y="535" width="200" height="25" as="geometry"/>
                </mxCell>
                <mxCell id="Ar9rGKO723f08wQL0Or9-470" value="&amp;nbsp;" style="text;strokeColor=none;fillColor=none;align=left;verticalAlign=middle;spacingLeft=4;spacingRight=4;overflow=hidden;rotatable=0;points=[[0,0.5],[1,0.5]];portConstraint=eastwest;fontFamily=Helvetica;html=1;" vertex="1" parent="Ar9rGKO723f08wQL0Or9-448">
                    <mxGeometry y="560" width="200" height="25" as="geometry"/>
                </mxCell>
                <mxCell id="Ar9rGKO723f08wQL0Or9-471" value="" style="line;strokeWidth=1;fillColor=none;align=left;verticalAlign=middle;spacingTop=-1;spacingLeft=3;spacingRight=3;rotatable=0;labelPosition=right;points=[];portConstraint=eastwest;fontFamily=Helvetica;fontColor=#FFFFFF;strokeColor=#FFFFFF;" vertex="1" parent="Ar9rGKO723f08wQL0Or9-448">
                    <mxGeometry y="585" width="200" height="-15" as="geometry"/>
                </mxCell>
                <mxCell id="Ar9rGKO723f08wQL0Or9-472" value="&lt;b&gt;&lt;font color=&quot;#ffffff&quot;&gt;Main&amp;nbsp;&lt;br&gt;&lt;/font&gt;&lt;/b&gt;&lt;span style=&quot;color: rgb(255 , 255 , 255) ; font-size: 10px&quot;&gt;~~ Class ~~&lt;/span&gt;&lt;b&gt;&lt;font color=&quot;#ffffff&quot;&gt;&lt;br&gt;&lt;/font&gt;&lt;/b&gt;" style="swimlane;fontStyle=0;align=center;verticalAlign=middle;childLayout=stackLayout;horizontal=1;startSize=55;horizontalStack=0;resizeParent=0;resizeParentMax=0;resizeLast=1;collapsible=0;marginBottom=0;fontFamily=Helvetica;html=1;strokeColor=#9673a6;swimlaneFillColor=#E1D5E7;fillColor=#9673A6;rounded=1;" vertex="1" parent="1">
                    <mxGeometry x="1210" y="280" width="200" height="430" as="geometry"/>
                </mxCell>
                <mxCell id="Ar9rGKO723f08wQL0Or9-473" value="attributes" style="text;html=1;strokeColor=none;fillColor=none;align=center;verticalAlign=middle;spacingLeft=4;spacingRight=4;overflow=hidden;rotatable=0;points=[[0,0.5],[1,0.5]];portConstraint=eastwest;fontFamily=Helvetica;" vertex="1" parent="Ar9rGKO723f08wQL0Or9-472">
                    <mxGeometry y="55" width="200" height="20" as="geometry"/>
                </mxCell>
                <mxCell id="Ar9rGKO723f08wQL0Or9-474" value="extends Application" style="text;strokeColor=none;fillColor=none;align=left;verticalAlign=middle;spacingLeft=4;spacingRight=4;overflow=hidden;rotatable=0;points=[[0,0.5],[1,0.5]];portConstraint=eastwest;fontFamily=Helvetica;fontSize=11;html=1;" vertex="1" parent="Ar9rGKO723f08wQL0Or9-472">
                    <mxGeometry y="75" width="200" height="25" as="geometry"/>
                </mxCell>
                <mxCell id="Ar9rGKO723f08wQL0Or9-475" value="primaryStage" style="text;strokeColor=none;fillColor=none;align=left;verticalAlign=middle;spacingLeft=4;spacingRight=4;overflow=hidden;rotatable=0;points=[[0,0.5],[1,0.5]];portConstraint=eastwest;fontFamily=Helvetica;html=1;" vertex="1" parent="Ar9rGKO723f08wQL0Or9-472">
                    <mxGeometry y="100" width="200" height="25" as="geometry"/>
                </mxCell>
                <mxCell id="Ar9rGKO723f08wQL0Or9-476" value="dashboardPane" style="text;strokeColor=none;fillColor=none;align=left;verticalAlign=middle;spacingLeft=4;spacingRight=4;overflow=hidden;rotatable=0;points=[[0,0.5],[1,0.5]];portConstraint=eastwest;fontFamily=Helvetica;html=1;" vertex="1" parent="Ar9rGKO723f08wQL0Or9-472">
                    <mxGeometry y="125" width="200" height="25" as="geometry"/>
                </mxCell>
                <mxCell id="Ar9rGKO723f08wQL0Or9-477" value="root" style="text;strokeColor=none;fillColor=none;align=left;verticalAlign=middle;spacingLeft=4;spacingRight=4;overflow=hidden;rotatable=0;points=[[0,0.5],[1,0.5]];portConstraint=eastwest;fontFamily=Helvetica;" vertex="1" parent="Ar9rGKO723f08wQL0Or9-472">
                    <mxGeometry y="150" width="200" height="25" as="geometry"/>
                </mxCell>
                <mxCell id="Ar9rGKO723f08wQL0Or9-478" value="" style="line;strokeWidth=1;fillColor=none;align=left;verticalAlign=middle;spacingTop=-1;spacingLeft=3;spacingRight=3;rotatable=0;labelPosition=right;points=[];portConstraint=eastwest;fontFamily=Helvetica;" vertex="1" parent="Ar9rGKO723f08wQL0Or9-472">
                    <mxGeometry y="175" width="200" height="12" as="geometry"/>
                </mxCell>
                <mxCell id="Ar9rGKO723f08wQL0Or9-479" value="operations" style="text;strokeColor=none;fillColor=none;align=center;verticalAlign=middle;spacingLeft=4;spacingRight=4;overflow=hidden;rotatable=0;points=[[0,0.5],[1,0.5]];portConstraint=eastwest;fontFamily=Helvetica;" vertex="1" parent="Ar9rGKO723f08wQL0Or9-472">
                    <mxGeometry y="187" width="200" height="20" as="geometry"/>
                </mxCell>
                <mxCell id="Ar9rGKO723f08wQL0Or9-480" value="Main()" style="text;strokeColor=none;fillColor=none;align=left;verticalAlign=middle;spacingLeft=4;spacingRight=4;overflow=hidden;rotatable=0;points=[[0,0.5],[1,0.5]];portConstraint=eastwest;fontFamily=Helvetica;" vertex="1" parent="Ar9rGKO723f08wQL0Or9-472">
                    <mxGeometry y="207" width="200" height="28" as="geometry"/>
                </mxCell>
                <mxCell id="Ar9rGKO723f08wQL0Or9-481" value="getItemComponents()" style="text;strokeColor=none;fillColor=none;align=left;verticalAlign=middle;spacingLeft=4;spacingRight=4;overflow=hidden;rotatable=0;points=[[0,0.5],[1,0.5]];portConstraint=eastwest;fontFamily=Helvetica;" vertex="1" parent="Ar9rGKO723f08wQL0Or9-472">
                    <mxGeometry y="235" width="200" height="25" as="geometry"/>
                </mxCell>
                <mxCell id="Ar9rGKO723f08wQL0Or9-482" value="start()" style="text;strokeColor=none;fillColor=none;align=left;verticalAlign=middle;spacingLeft=4;spacingRight=4;overflow=hidden;rotatable=0;points=[[0,0.5],[1,0.5]];portConstraint=eastwest;fontFamily=Helvetica;" vertex="1" parent="Ar9rGKO723f08wQL0Or9-472">
                    <mxGeometry y="260" width="200" height="25" as="geometry"/>
                </mxCell>
                <mxCell id="Ar9rGKO723f08wQL0Or9-483" value="initDashboard()" style="text;strokeColor=none;fillColor=none;align=left;verticalAlign=middle;spacingLeft=4;spacingRight=4;overflow=hidden;rotatable=0;points=[[0,0.5],[1,0.5]];portConstraint=eastwest;fontFamily=Helvetica;" vertex="1" parent="Ar9rGKO723f08wQL0Or9-472">
                    <mxGeometry y="285" width="200" height="30" as="geometry"/>
                </mxCell>
                <mxCell id="Ar9rGKO723f08wQL0Or9-484" value="showItemEditDialog()" style="text;strokeColor=none;fillColor=none;align=left;verticalAlign=middle;spacingLeft=4;spacingRight=4;overflow=hidden;rotatable=0;points=[[0,0.5],[1,0.5]];portConstraint=eastwest;fontFamily=Helvetica;" vertex="1" parent="Ar9rGKO723f08wQL0Or9-472">
                    <mxGeometry y="315" width="200" height="25" as="geometry"/>
                </mxCell>
                <mxCell id="Ar9rGKO723f08wQL0Or9-485" value="showItemView()" style="text;strokeColor=none;fillColor=none;align=left;verticalAlign=middle;spacingLeft=4;spacingRight=4;overflow=hidden;rotatable=0;points=[[0,0.5],[1,0.5]];portConstraint=eastwest;fontFamily=Helvetica;" vertex="1" parent="Ar9rGKO723f08wQL0Or9-472">
                    <mxGeometry y="340" width="200" height="28" as="geometry"/>
                </mxCell>
                <mxCell id="Ar9rGKO723f08wQL0Or9-486" value="getPrimaryStage()" style="text;strokeColor=none;fillColor=none;align=left;verticalAlign=middle;spacingLeft=4;spacingRight=4;overflow=hidden;rotatable=0;points=[[0,0.5],[1,0.5]];portConstraint=eastwest;fontFamily=Helvetica;" vertex="1" parent="Ar9rGKO723f08wQL0Or9-472">
                    <mxGeometry y="368" width="200" height="25" as="geometry"/>
                </mxCell>
                <mxCell id="Ar9rGKO723f08wQL0Or9-487" value="main()" style="text;strokeColor=none;fillColor=none;align=left;verticalAlign=middle;spacingLeft=4;spacingRight=4;overflow=hidden;rotatable=0;points=[[0,0.5],[1,0.5]];portConstraint=eastwest;fontFamily=Helvetica;" vertex="1" parent="Ar9rGKO723f08wQL0Or9-472">
                    <mxGeometry y="393" width="200" height="28" as="geometry"/>
                </mxCell>
                <mxCell id="Ar9rGKO723f08wQL0Or9-488" value="&amp;nbsp;" style="text;strokeColor=none;fillColor=none;align=left;verticalAlign=middle;spacingLeft=4;spacingRight=4;overflow=hidden;rotatable=0;points=[[0,0.5],[1,0.5]];portConstraint=eastwest;fontFamily=Helvetica;html=1;" vertex="1" parent="Ar9rGKO723f08wQL0Or9-472">
                    <mxGeometry y="421" width="200" height="25" as="geometry"/>
                </mxCell>
                <mxCell id="Ar9rGKO723f08wQL0Or9-489" value="" style="line;strokeWidth=1;fillColor=none;align=left;verticalAlign=middle;spacingTop=-1;spacingLeft=3;spacingRight=3;rotatable=0;labelPosition=right;points=[];portConstraint=eastwest;fontFamily=Helvetica;fontColor=#FFFFFF;strokeColor=#FFFFFF;" vertex="1" parent="Ar9rGKO723f08wQL0Or9-472">
                    <mxGeometry y="446" width="200" height="-16" as="geometry"/>
                </mxCell>
                <mxCell id="Ar9rGKO723f08wQL0Or9-490" value="" style="endArrow=classic;html=1;fontColor=#FFFFFF;exitX=0.5;exitY=0;exitDx=0;exitDy=0;entryX=0.5;entryY=0;entryDx=0;entryDy=0;" edge="1" parent="1" source="Ar9rGKO723f08wQL0Or9-472" target="Ar9rGKO723f08wQL0Or9-390">
                    <mxGeometry width="50" height="50" relative="1" as="geometry">
                        <mxPoint x="1510" y="70" as="sourcePoint"/>
                        <mxPoint x="1090" y="60" as="targetPoint"/>
                        <Array as="points">
                            <mxPoint x="1310" y="70"/>
                            <mxPoint x="1060" y="70"/>
                        </Array>
                    </mxGeometry>
                </mxCell>
                <mxCell id="Ar9rGKO723f08wQL0Or9-491" value="" style="endArrow=classic;html=1;entryX=0.5;entryY=0;entryDx=0;entryDy=0;" edge="1" parent="1" source="Ar9rGKO723f08wQL0Or9-344" target="Ar9rGKO723f08wQL0Or9-376">
                    <mxGeometry width="50" height="50" relative="1" as="geometry">
                        <mxPoint x="600" y="450" as="sourcePoint"/>
                        <mxPoint x="390" y="150" as="targetPoint"/>
                        <Array as="points">
                            <mxPoint x="380" y="920"/>
                            <mxPoint x="260" y="920"/>
                        </Array>
                    </mxGeometry>
                </mxCell>
                <mxCell id="Ar9rGKO723f08wQL0Or9-492" value="" style="endArrow=classic;html=1;entryX=0.5;entryY=0;entryDx=0;entryDy=0;" edge="1" parent="1" source="Ar9rGKO723f08wQL0Or9-344" target="Ar9rGKO723f08wQL0Or9-434">
                    <mxGeometry width="50" height="50" relative="1" as="geometry">
                        <mxPoint x="360" y="352.109375" as="sourcePoint"/>
                        <mxPoint x="420" y="420" as="targetPoint"/>
                        <Array as="points">
                            <mxPoint x="380" y="920"/>
                            <mxPoint x="500" y="920"/>
                        </Array>
                    </mxGeometry>
                </mxCell>
                <mxCell id="Ar9rGKO723f08wQL0Or9-493" value="" style="endArrow=classic;html=1;" edge="1" parent="1">
                    <mxGeometry width="50" height="50" relative="1" as="geometry">
                        <mxPoint x="1060" y="1230" as="sourcePoint"/>
                        <mxPoint x="490" y="1290" as="targetPoint"/>
                        <Array as="points">
                            <mxPoint x="1060" y="1320"/>
                            <mxPoint x="490" y="1320"/>
                        </Array>
                    </mxGeometry>
                </mxCell>
                <mxCell id="Ar9rGKO723f08wQL0Or9-494" value="" style="endArrow=classic;html=1;exitX=0.5;exitY=1;exitDx=0;exitDy=0;exitPerimeter=0;" edge="1" parent="1" source="Ar9rGKO723f08wQL0Or9-433">
                    <mxGeometry width="50" height="50" relative="1" as="geometry">
                        <mxPoint x="1070" y="1020" as="sourcePoint"/>
                        <mxPoint x="258" y="1310" as="targetPoint"/>
                        <Array as="points">
                            <mxPoint x="1060" y="1340"/>
                            <mxPoint x="258" y="1340"/>
                        </Array>
                    </mxGeometry>
                </mxCell>
                <mxCell id="Ar9rGKO723f08wQL0Or9-495" value="interacts with" style="text;html=1;strokeColor=none;fillColor=none;align=center;verticalAlign=middle;whiteSpace=wrap;rounded=0;" vertex="1" parent="1">
                    <mxGeometry x="490" y="1300" width="90" height="20" as="geometry"/>
                </mxCell>
                <mxCell id="Ar9rGKO723f08wQL0Or9-496" value="" style="endArrow=classic;html=1;fontColor=#FFFFFF;exitX=0.5;exitY=0;exitDx=0;exitDy=0;entryX=0.5;entryY=0;entryDx=0;entryDy=0;" edge="1" parent="1" source="Ar9rGKO723f08wQL0Or9-472" target="Ar9rGKO723f08wQL0Or9-344">
                    <mxGeometry width="50" height="50" relative="1" as="geometry">
                        <mxPoint x="1550" y="30" as="sourcePoint"/>
                        <mxPoint x="400" y="30" as="targetPoint"/>
                        <Array as="points">
                            <mxPoint x="1310" y="30"/>
                            <mxPoint x="380" y="30"/>
                        </Array>
                    </mxGeometry>
                </mxCell>
                <mxCell id="Ar9rGKO723f08wQL0Or9-497" value="" style="endArrow=classic;html=1;fontColor=#FFFFFF;exitX=0.5;exitY=0;exitDx=0;exitDy=0;entryX=0.5;entryY=0;entryDx=0;entryDy=0;" edge="1" parent="1" source="Ar9rGKO723f08wQL0Or9-472" target="Ar9rGKO723f08wQL0Or9-448">
                    <mxGeometry width="50" height="50" relative="1" as="geometry">
                        <mxPoint x="1580" y="-30" as="sourcePoint"/>
                        <mxPoint x="430" y="-30" as="targetPoint"/>
                        <Array as="points">
                            <mxPoint x="1310" y="50"/>
                            <mxPoint x="635" y="50"/>
                        </Array>
                    </mxGeometry>
                </mxCell>
                <mxCell id="Ar9rGKO723f08wQL0Or9-498" value="" style="endArrow=classic;html=1;fontColor=#FFFFFF;exitX=0.5;exitY=0;exitDx=0;exitDy=0;entryX=0.5;entryY=0;entryDx=0;entryDy=0;" edge="1" parent="1" source="Ar9rGKO723f08wQL0Or9-472" target="Ar9rGKO723f08wQL0Or9-434">
                    <mxGeometry width="50" height="50" relative="1" as="geometry">
                        <mxPoint x="1550" y="9" as="sourcePoint"/>
                        <mxPoint x="520" y="720" as="targetPoint"/>
                        <Array as="points">
                            <mxPoint x="1310" y="40"/>
                            <mxPoint x="500" y="40"/>
                        </Array>
                    </mxGeometry>
                </mxCell>
                <mxCell id="Ar9rGKO723f08wQL0Or9-499" value="interacts with" style="text;html=1;strokeColor=none;fillColor=none;align=center;verticalAlign=middle;whiteSpace=wrap;rounded=0;" vertex="1" parent="1">
                    <mxGeometry x="630" y="50" width="90" height="20" as="geometry"/>
                </mxCell>
                <mxCell id="Ar9rGKO723f08wQL0Or9-500" value="" style="endArrow=classic;html=1;exitX=0.5;exitY=1;exitDx=0;exitDy=0;entryX=0.5;entryY=0;entryDx=0;entryDy=0;" edge="1" parent="1" source="Ar9rGKO723f08wQL0Or9-448" target="Ar9rGKO723f08wQL0Or9-344">
                    <mxGeometry width="50" height="50" relative="1" as="geometry">
                        <mxPoint x="610" y="720" as="sourcePoint"/>
                        <mxPoint x="400" y="90" as="targetPoint"/>
                        <Array as="points">
                            <mxPoint x="635" y="780"/>
                            <mxPoint x="530" y="780"/>
                            <mxPoint x="530" y="70"/>
                            <mxPoint x="380" y="70"/>
                        </Array>
                    </mxGeometry>
                </mxCell>
                <mxCell id="Ar9rGKO723f08wQL0Or9-501" value="interacts with" style="text;html=1;strokeColor=none;fillColor=none;align=center;verticalAlign=middle;whiteSpace=wrap;rounded=0;" vertex="1" parent="1">
                    <mxGeometry x="550" y="760" width="90" height="20" as="geometry"/>
                </mxCell>
                <mxCell id="Ar9rGKO723f08wQL0Or9-502" value="interacts with" style="text;html=1;strokeColor=none;fillColor=none;align=center;verticalAlign=middle;whiteSpace=wrap;rounded=0;" vertex="1" parent="1">
                    <mxGeometry x="260" y="1320" width="90" height="20" as="geometry"/>
                </mxCell>
                <mxCell id="Ar9rGKO723f08wQL0Or9-503" value="interacts with" style="text;html=1;strokeColor=none;fillColor=none;align=center;verticalAlign=middle;whiteSpace=wrap;rounded=0;" vertex="1" parent="1">
                    <mxGeometry x="1060" y="70" width="90" height="20" as="geometry"/>
                </mxCell>
                <mxCell id="Ar9rGKO723f08wQL0Or9-504" value="interacts with" style="text;html=1;strokeColor=none;fillColor=none;align=center;verticalAlign=middle;whiteSpace=wrap;rounded=0;" vertex="1" parent="1">
                    <mxGeometry x="380" y="30" width="90" height="20" as="geometry"/>
                </mxCell>
                <mxCell id="Ar9rGKO723f08wQL0Or9-505" value="" style="endArrow=classic;html=1;entryX=0.493;entryY=0.75;entryDx=0;entryDy=0;entryPerimeter=0;" edge="1" parent="1" target="Ar9rGKO723f08wQL0Or9-489">
                    <mxGeometry width="50" height="50" relative="1" as="geometry">
                        <mxPoint x="1060" y="1160" as="sourcePoint"/>
                        <mxPoint x="1149.9999999999995" y="989.9999999999995" as="targetPoint"/>
                        <Array as="points">
                            <mxPoint x="1060" y="1180"/>
                            <mxPoint x="1309" y="1180"/>
                        </Array>
                    </mxGeometry>
                </mxCell>
                <mxCell id="Ar9rGKO723f08wQL0Or9-506" value="interacts with" style="text;html=1;strokeColor=none;fillColor=none;align=center;verticalAlign=middle;whiteSpace=wrap;rounded=0;" vertex="1" parent="1">
                    <mxGeometry x="1220" y="1150" width="90" height="20" as="geometry"/>
                </mxCell>
                <mxCell id="Ar9rGKO723f08wQL0Or9-507" value="&lt;font color=&quot;#ffffff&quot; style=&quot;font-size: 30px&quot;&gt;Drone App&lt;br&gt;&lt;/font&gt;&lt;hr style=&quot;font-size: 30px&quot;&gt;&lt;span style=&quot;font-weight: 400 ; text-align: left&quot;&gt;&lt;font color=&quot;#ffffff&quot; style=&quot;font-size: 22px&quot;&gt;Class Diagram&lt;/font&gt;&lt;/span&gt;" style="text;strokeColor=#9673a6;html=1;fontSize=24;fontStyle=1;verticalAlign=middle;align=center;rounded=1;fillColor=#9673A6;" vertex="1" parent="1">
                    <mxGeometry x="240" y="-230" width="400" height="150" as="geometry"/>
                </mxCell>
                <mxCell id="Ar9rGKO723f08wQL0Or9-508" value="&lt;b&gt;&lt;font color=&quot;#ffffff&quot;&gt;Item View Controller&amp;nbsp;&lt;br&gt;&lt;/font&gt;&lt;/b&gt;&lt;span style=&quot;color: rgb(255 , 255 , 255) ; font-size: 10px&quot;&gt;~~ Class ~~&lt;/span&gt;&lt;b&gt;&lt;font color=&quot;#ffffff&quot;&gt;&lt;br&gt;&lt;/font&gt;&lt;/b&gt;" style="swimlane;fontStyle=0;align=center;verticalAlign=middle;childLayout=stackLayout;horizontal=1;startSize=55;horizontalStack=0;resizeParent=0;resizeParentMax=0;resizeLast=1;collapsible=0;marginBottom=0;html=1;fontFamily=Helvetica;whiteSpace=wrap;strokeColor=#9673a6;swimlaneFillColor=#E1D5E7;fillColor=#9673A6;rounded=1;" vertex="1" parent="1">
                    <mxGeometry x="750" y="180" width="200" height="500" as="geometry"/>
                </mxCell>
                <mxCell id="Ar9rGKO723f08wQL0Or9-509" value="attributes" style="text;html=1;strokeColor=none;fillColor=none;align=center;verticalAlign=middle;spacingLeft=4;spacingRight=4;overflow=hidden;rotatable=0;points=[[0,0.5],[1,0.5]];portConstraint=eastwest;fontFamily=Helvetica;" vertex="1" parent="Ar9rGKO723f08wQL0Or9-508">
                    <mxGeometry y="55" width="200" height="20" as="geometry"/>
                </mxCell>
                <mxCell id="Ar9rGKO723f08wQL0Or9-510" value="nameField" style="text;strokeColor=none;fillColor=none;align=left;verticalAlign=middle;spacingLeft=4;spacingRight=4;overflow=hidden;rotatable=0;points=[[0,0.5],[1,0.5]];portConstraint=eastwest;fontFamily=Helvetica;html=1;" vertex="1" parent="Ar9rGKO723f08wQL0Or9-508">
                    <mxGeometry y="75" width="200" height="25" as="geometry"/>
                </mxCell>
                <mxCell id="Ar9rGKO723f08wQL0Or9-511" value="priceField" style="text;strokeColor=none;fillColor=none;align=left;verticalAlign=middle;spacingLeft=4;spacingRight=4;overflow=hidden;rotatable=0;points=[[0,0.5],[1,0.5]];portConstraint=eastwest;fontFamily=Helvetica;html=1;" vertex="1" parent="Ar9rGKO723f08wQL0Or9-508">
                    <mxGeometry y="100" width="200" height="25" as="geometry"/>
                </mxCell>
                <mxCell id="Ar9rGKO723f08wQL0Or9-512" value="marketValueField" style="text;strokeColor=none;fillColor=none;align=left;verticalAlign=middle;spacingLeft=4;spacingRight=4;overflow=hidden;rotatable=0;points=[[0,0.5],[1,0.5]];portConstraint=eastwest;fontFamily=Helvetica;html=1;" vertex="1" parent="Ar9rGKO723f08wQL0Or9-508">
                    <mxGeometry y="125" width="200" height="25" as="geometry"/>
                </mxCell>
                <mxCell id="Ar9rGKO723f08wQL0Or9-513" value="xLocationField" style="text;strokeColor=none;fillColor=none;align=left;verticalAlign=middle;spacingLeft=4;spacingRight=4;overflow=hidden;rotatable=0;points=[[0,0.5],[1,0.5]];portConstraint=eastwest;fontFamily=Helvetica;html=1;" vertex="1" parent="Ar9rGKO723f08wQL0Or9-508">
                    <mxGeometry y="150" width="200" height="25" as="geometry"/>
                </mxCell>
                <mxCell id="Ar9rGKO723f08wQL0Or9-514" value="yLocationField" style="text;strokeColor=none;fillColor=none;align=left;verticalAlign=middle;spacingLeft=4;spacingRight=4;overflow=hidden;rotatable=0;points=[[0,0.5],[1,0.5]];portConstraint=eastwest;fontFamily=Helvetica;html=1;" vertex="1" parent="Ar9rGKO723f08wQL0Or9-508">
                    <mxGeometry y="175" width="200" height="25" as="geometry"/>
                </mxCell>
                <mxCell id="Ar9rGKO723f08wQL0Or9-515" value="lengthField" style="text;strokeColor=none;fillColor=none;align=left;verticalAlign=middle;spacingLeft=4;spacingRight=4;overflow=hidden;rotatable=0;points=[[0,0.5],[1,0.5]];portConstraint=eastwest;fontFamily=Helvetica;html=1;" vertex="1" parent="Ar9rGKO723f08wQL0Or9-508">
                    <mxGeometry y="200" width="200" height="25" as="geometry"/>
                </mxCell>
                <mxCell id="Ar9rGKO723f08wQL0Or9-516" value="widthField" style="text;strokeColor=none;fillColor=none;align=left;verticalAlign=middle;spacingLeft=4;spacingRight=4;overflow=hidden;rotatable=0;points=[[0,0.5],[1,0.5]];portConstraint=eastwest;fontFamily=Helvetica;html=1;" vertex="1" parent="Ar9rGKO723f08wQL0Or9-508">
                    <mxGeometry y="225" width="200" height="25" as="geometry"/>
                </mxCell>
                <mxCell id="Ar9rGKO723f08wQL0Or9-517" value="heightField" style="text;strokeColor=none;fillColor=none;align=left;verticalAlign=middle;spacingLeft=4;spacingRight=4;overflow=hidden;rotatable=0;points=[[0,0.5],[1,0.5]];portConstraint=eastwest;fontFamily=Helvetica;html=1;" vertex="1" parent="Ar9rGKO723f08wQL0Or9-508">
                    <mxGeometry y="250" width="200" height="25" as="geometry"/>
                </mxCell>
                <mxCell id="Ar9rGKO723f08wQL0Or9-518" value="dialogStage" style="text;strokeColor=none;fillColor=none;align=left;verticalAlign=middle;spacingLeft=4;spacingRight=4;overflow=hidden;rotatable=0;points=[[0,0.5],[1,0.5]];portConstraint=eastwest;fontFamily=Helvetica;html=1;" vertex="1" parent="Ar9rGKO723f08wQL0Or9-508">
                    <mxGeometry y="275" width="200" height="25" as="geometry"/>
                </mxCell>
                <mxCell id="Ar9rGKO723f08wQL0Or9-519" value="okClicked" style="text;strokeColor=none;fillColor=none;align=left;verticalAlign=middle;spacingLeft=4;spacingRight=4;overflow=hidden;rotatable=0;points=[[0,0.5],[1,0.5]];portConstraint=eastwest;fontFamily=Helvetica;html=1;" vertex="1" parent="Ar9rGKO723f08wQL0Or9-508">
                    <mxGeometry y="300" width="200" height="25" as="geometry"/>
                </mxCell>
                <mxCell id="Ar9rGKO723f08wQL0Or9-520" value="" style="line;strokeWidth=1;fillColor=none;align=left;verticalAlign=middle;spacingTop=-1;spacingLeft=3;spacingRight=3;rotatable=0;labelPosition=right;points=[];portConstraint=eastwest;fontFamily=Helvetica;html=1;" vertex="1" parent="Ar9rGKO723f08wQL0Or9-508">
                    <mxGeometry y="325" width="200" height="12" as="geometry"/>
                </mxCell>
                <mxCell id="Ar9rGKO723f08wQL0Or9-521" value="operations" style="text;strokeColor=none;fillColor=none;align=center;verticalAlign=middle;spacingLeft=4;spacingRight=4;overflow=hidden;rotatable=0;points=[[0,0.5],[1,0.5]];portConstraint=eastwest;fontFamily=Helvetica;html=1;" vertex="1" parent="Ar9rGKO723f08wQL0Or9-508">
                    <mxGeometry y="337" width="200" height="23" as="geometry"/>
                </mxCell>
                <mxCell id="Ar9rGKO723f08wQL0Or9-522" value="initialize()" style="text;strokeColor=none;fillColor=none;align=left;verticalAlign=middle;spacingLeft=4;spacingRight=4;overflow=hidden;rotatable=0;points=[[0,0.5],[1,0.5]];portConstraint=eastwest;fontFamily=Helvetica;html=1;" vertex="1" parent="Ar9rGKO723f08wQL0Or9-508">
                    <mxGeometry y="360" width="200" height="25" as="geometry"/>
                </mxCell>
                <mxCell id="Ar9rGKO723f08wQL0Or9-523" value="setDialogStage()" style="text;strokeColor=none;fillColor=none;align=left;verticalAlign=middle;spacingLeft=4;spacingRight=4;overflow=hidden;rotatable=0;points=[[0,0.5],[1,0.5]];portConstraint=eastwest;fontFamily=Helvetica;html=1;" vertex="1" parent="Ar9rGKO723f08wQL0Or9-508">
                    <mxGeometry y="385" width="200" height="25" as="geometry"/>
                </mxCell>
                <mxCell id="Ar9rGKO723f08wQL0Or9-524" value="setItemComponent()" style="text;strokeColor=none;fillColor=none;align=left;verticalAlign=middle;spacingLeft=4;spacingRight=4;overflow=hidden;rotatable=0;points=[[0,0.5],[1,0.5]];portConstraint=eastwest;fontFamily=Helvetica;html=1;" vertex="1" parent="Ar9rGKO723f08wQL0Or9-508">
                    <mxGeometry y="410" width="200" height="25" as="geometry"/>
                </mxCell>
                <mxCell id="Ar9rGKO723f08wQL0Or9-525" value="isOkClicked() " style="text;strokeColor=none;fillColor=none;align=left;verticalAlign=middle;spacingLeft=4;spacingRight=4;overflow=hidden;rotatable=0;points=[[0,0.5],[1,0.5]];portConstraint=eastwest;fontFamily=Helvetica;html=1;" vertex="1" parent="Ar9rGKO723f08wQL0Or9-508">
                    <mxGeometry y="435" width="200" height="25" as="geometry"/>
                </mxCell>
                <mxCell id="Ar9rGKO723f08wQL0Or9-526" value="handleClose()" style="text;strokeColor=none;fillColor=none;align=left;verticalAlign=middle;spacingLeft=4;spacingRight=4;overflow=hidden;rotatable=0;points=[[0,0.5],[1,0.5]];portConstraint=eastwest;fontFamily=Helvetica;html=1;" vertex="1" parent="Ar9rGKO723f08wQL0Or9-508">
                    <mxGeometry y="460" width="200" height="25" as="geometry"/>
                </mxCell>
                <mxCell id="Ar9rGKO723f08wQL0Or9-527" value="&amp;nbsp;" style="text;strokeColor=none;fillColor=none;align=left;verticalAlign=middle;spacingLeft=4;spacingRight=4;overflow=hidden;rotatable=0;points=[[0,0.5],[1,0.5]];portConstraint=eastwest;fontFamily=Helvetica;html=1;" vertex="1" parent="Ar9rGKO723f08wQL0Or9-508">
                    <mxGeometry y="485" width="200" height="25" as="geometry"/>
                </mxCell>
                <mxCell id="Ar9rGKO723f08wQL0Or9-528" value="" style="line;strokeWidth=1;fillColor=none;align=left;verticalAlign=middle;spacingTop=-1;spacingLeft=3;spacingRight=3;rotatable=0;labelPosition=right;points=[];portConstraint=eastwest;fontFamily=Helvetica;fontColor=#FFFFFF;strokeColor=#FFFFFF;" vertex="1" parent="Ar9rGKO723f08wQL0Or9-508">
                    <mxGeometry y="510" width="200" height="-10" as="geometry"/>
                </mxCell>
                <mxCell id="Ar9rGKO723f08wQL0Or9-529" value="&lt;font color=&quot;#ffffff&quot;&gt;&lt;b&gt;Animated Drone&lt;br&gt;&lt;/b&gt;&lt;/font&gt;&lt;span style=&quot;color: rgb(255 , 255 , 255) ; font-size: 10px&quot;&gt;~~ Class ~~&lt;/span&gt;&lt;font color=&quot;#ffffff&quot;&gt;&lt;b&gt;&lt;br&gt;&lt;/b&gt;&lt;/font&gt;" style="swimlane;fontStyle=0;align=center;verticalAlign=middle;childLayout=stackLayout;horizontal=1;startSize=55;horizontalStack=0;resizeParent=0;resizeParentMax=0;resizeLast=1;collapsible=0;marginBottom=0;fontFamily=Helvetica;html=1;strokeColor=#9673a6;swimlaneFillColor=#E1D5E7;fillColor=#9673A6;rounded=1;" vertex="1" parent="1">
                    <mxGeometry x="-90" y="340" width="200" height="280" as="geometry"/>
                </mxCell>
                <mxCell id="Ar9rGKO723f08wQL0Or9-530" value="attributes" style="text;strokeColor=none;fillColor=none;align=center;verticalAlign=middle;spacingLeft=4;spacingRight=4;overflow=hidden;rotatable=0;points=[[0,0.5],[1,0.5]];portConstraint=eastwest;fontFamily=Helvetica;html=1;" vertex="1" parent="Ar9rGKO723f08wQL0Or9-529">
                    <mxGeometry y="55" width="200" height="20" as="geometry"/>
                </mxCell>
                <mxCell id="Ar9rGKO723f08wQL0Or9-531" value="implements Animated Drone Interface" style="text;strokeColor=none;fillColor=none;align=left;verticalAlign=middle;spacingLeft=4;spacingRight=4;overflow=hidden;rotatable=0;points=[[0,0.5],[1,0.5]];portConstraint=eastwest;fontFamily=Helvetica;fontSize=11;html=1;" vertex="1" parent="Ar9rGKO723f08wQL0Or9-529">
                    <mxGeometry y="75" width="200" height="25" as="geometry"/>
                </mxCell>
                <mxCell id="Ar9rGKO723f08wQL0Or9-532" value="drone" style="text;strokeColor=none;fillColor=none;align=left;verticalAlign=middle;spacingLeft=4;spacingRight=4;overflow=hidden;rotatable=0;points=[[0,0.5],[1,0.5]];portConstraint=eastwest;fontFamily=Helvetica;fontSize=12;html=1;" vertex="1" parent="Ar9rGKO723f08wQL0Or9-529">
                    <mxGeometry y="100" width="200" height="25" as="geometry"/>
                </mxCell>
                <mxCell id="Ar9rGKO723f08wQL0Or9-533" value="speed_factor" style="text;strokeColor=none;fillColor=none;align=left;verticalAlign=middle;spacingLeft=4;spacingRight=4;overflow=hidden;rotatable=0;points=[[0,0.5],[1,0.5]];portConstraint=eastwest;fontFamily=Helvetica;fontSize=12;html=1;" vertex="1" parent="Ar9rGKO723f08wQL0Or9-529">
                    <mxGeometry y="125" width="200" height="25" as="geometry"/>
                </mxCell>
                <mxCell id="Ar9rGKO723f08wQL0Or9-534" value="" style="line;strokeWidth=1;fillColor=none;align=left;verticalAlign=middle;spacingTop=-1;spacingLeft=3;spacingRight=3;rotatable=0;labelPosition=right;points=[];portConstraint=eastwest;fontFamily=Helvetica;html=1;" vertex="1" parent="Ar9rGKO723f08wQL0Or9-529">
                    <mxGeometry y="150" width="200" height="12" as="geometry"/>
                </mxCell>
                <mxCell id="Ar9rGKO723f08wQL0Or9-535" value="operations" style="text;strokeColor=none;fillColor=none;align=center;verticalAlign=middle;spacingLeft=4;spacingRight=4;overflow=hidden;rotatable=0;points=[[0,0.5],[1,0.5]];portConstraint=eastwest;fontFamily=Helvetica;html=1;" vertex="1" parent="Ar9rGKO723f08wQL0Or9-529">
                    <mxGeometry y="162" width="200" height="28" as="geometry"/>
                </mxCell>
                <mxCell id="Ar9rGKO723f08wQL0Or9-536" value="AnimatedDrone()" style="text;strokeColor=none;fillColor=none;align=left;verticalAlign=middle;spacingLeft=4;spacingRight=4;overflow=hidden;rotatable=0;points=[[0,0.5],[1,0.5]];portConstraint=eastwest;fontFamily=Helvetica;html=1;" vertex="1" parent="Ar9rGKO723f08wQL0Or9-529">
                    <mxGeometry y="190" width="200" height="30" as="geometry"/>
                </mxCell>
                <mxCell id="Ar9rGKO723f08wQL0Or9-537" value="goToComponent()" style="text;strokeColor=none;fillColor=none;align=left;verticalAlign=middle;spacingLeft=4;spacingRight=4;overflow=hidden;rotatable=0;points=[[0,0.5],[1,0.5]];portConstraint=eastwest;fontFamily=Helvetica;html=1;" vertex="1" parent="Ar9rGKO723f08wQL0Or9-529">
                    <mxGeometry y="220" width="200" height="30" as="geometry"/>
                </mxCell>
                <mxCell id="Ar9rGKO723f08wQL0Or9-538" value="scanFarm()" style="text;strokeColor=none;fillColor=none;align=left;verticalAlign=middle;spacingLeft=4;spacingRight=4;overflow=hidden;rotatable=0;points=[[0,0.5],[1,0.5]];portConstraint=eastwest;fontFamily=Helvetica;html=1;" vertex="1" parent="Ar9rGKO723f08wQL0Or9-529">
                    <mxGeometry y="250" width="200" height="25" as="geometry"/>
                </mxCell>
                <mxCell id="Ar9rGKO723f08wQL0Or9-539" value="" style="line;strokeWidth=1;fillColor=none;align=left;verticalAlign=middle;spacingTop=-1;spacingLeft=3;spacingRight=3;rotatable=0;labelPosition=right;points=[];portConstraint=eastwest;fontFamily=Helvetica;fontColor=#FFFFFF;strokeColor=#FFFFFF;html=1;" vertex="1" parent="Ar9rGKO723f08wQL0Or9-529">
                    <mxGeometry y="275" width="200" height="5" as="geometry"/>
                </mxCell>
                <mxCell id="Ar9rGKO723f08wQL0Or9-540" value="&lt;font color=&quot;#ffffff&quot;&gt;&lt;b&gt;Animated Drone Interface&lt;/b&gt;&lt;br&gt;&lt;font style=&quot;font-size: 10px&quot;&gt;&amp;lt;&amp;lt; Interface &amp;gt;&amp;gt;&lt;/font&gt;&lt;/font&gt;" style="swimlane;fontStyle=0;align=center;verticalAlign=middle;childLayout=stackLayout;horizontal=1;startSize=55;horizontalStack=0;resizeParent=0;resizeParentMax=0;resizeLast=1;collapsible=0;marginBottom=0;fontFamily=Helvetica;html=1;strokeColor=#9673a6;swimlaneFillColor=#E1D5E7;fillColor=#9673A6;rounded=1;" vertex="1" parent="1">
                    <mxGeometry x="-210" y="80" width="200" height="180" as="geometry"/>
                </mxCell>
                <mxCell id="Ar9rGKO723f08wQL0Or9-541" value="attributes" style="text;strokeColor=none;fillColor=none;align=center;verticalAlign=middle;spacingLeft=4;spacingRight=4;overflow=hidden;rotatable=0;points=[[0,0.5],[1,0.5]];portConstraint=eastwest;fontFamily=Helvetica;html=1;" vertex="1" parent="Ar9rGKO723f08wQL0Or9-540">
                    <mxGeometry y="55" width="200" height="20" as="geometry"/>
                </mxCell>
                <mxCell id="Ar9rGKO723f08wQL0Or9-542" value="" style="line;strokeWidth=1;fillColor=none;align=left;verticalAlign=middle;spacingTop=-1;spacingLeft=3;spacingRight=3;rotatable=0;labelPosition=right;points=[];portConstraint=eastwest;fontFamily=Helvetica;html=1;" vertex="1" parent="Ar9rGKO723f08wQL0Or9-540">
                    <mxGeometry y="75" width="200" height="12" as="geometry"/>
                </mxCell>
                <mxCell id="Ar9rGKO723f08wQL0Or9-543" value="operations" style="text;strokeColor=none;fillColor=none;align=center;verticalAlign=middle;spacingLeft=4;spacingRight=4;overflow=hidden;rotatable=0;points=[[0,0.5],[1,0.5]];portConstraint=eastwest;fontFamily=Helvetica;html=1;" vertex="1" parent="Ar9rGKO723f08wQL0Or9-540">
                    <mxGeometry y="87" width="200" height="28" as="geometry"/>
                </mxCell>
                <mxCell id="Ar9rGKO723f08wQL0Or9-544" value="scanFarm()" style="text;strokeColor=none;fillColor=none;align=left;verticalAlign=middle;spacingLeft=4;spacingRight=4;overflow=hidden;rotatable=0;points=[[0,0.5],[1,0.5]];portConstraint=eastwest;fontFamily=Helvetica;html=1;" vertex="1" parent="Ar9rGKO723f08wQL0Or9-540">
                    <mxGeometry y="115" width="200" height="25" as="geometry"/>
                </mxCell>
                <mxCell id="Ar9rGKO723f08wQL0Or9-545" value="gotoComponent()" style="text;strokeColor=none;fillColor=none;align=left;verticalAlign=middle;spacingLeft=4;spacingRight=4;overflow=hidden;rotatable=0;points=[[0,0.5],[1,0.5]];portConstraint=eastwest;fontFamily=Helvetica;html=1;" vertex="1" parent="Ar9rGKO723f08wQL0Or9-540">
                    <mxGeometry y="140" width="200" height="25" as="geometry"/>
                </mxCell>
                <mxCell id="Ar9rGKO723f08wQL0Or9-546" value="&amp;nbsp;" style="text;strokeColor=none;fillColor=none;align=left;verticalAlign=middle;spacingLeft=4;spacingRight=4;overflow=hidden;rotatable=0;points=[[0,0.5],[1,0.5]];portConstraint=eastwest;fontFamily=Helvetica;html=1;" vertex="1" parent="Ar9rGKO723f08wQL0Or9-540">
                    <mxGeometry y="165" width="200" height="25" as="geometry"/>
                </mxCell>
                <mxCell id="Ar9rGKO723f08wQL0Or9-547" value="" style="line;strokeWidth=1;fillColor=none;align=left;verticalAlign=middle;spacingTop=-1;spacingLeft=3;spacingRight=3;rotatable=0;labelPosition=right;points=[];portConstraint=eastwest;fontFamily=Helvetica;fontColor=#FFFFFF;strokeColor=#FFFFFF;html=1;" vertex="1" parent="Ar9rGKO723f08wQL0Or9-540">
                    <mxGeometry y="190" width="200" height="-10" as="geometry"/>
                </mxCell>
                <mxCell id="Ar9rGKO723f08wQL0Or9-548" value="&lt;font color=&quot;#ffffff&quot;&gt;&lt;b&gt;Physical Drone Adapter&lt;br&gt;&lt;/b&gt;&lt;/font&gt;&lt;span style=&quot;color: rgb(255 , 255 , 255) ; font-size: 10px&quot;&gt;~~ Class ~~&lt;/span&gt;&lt;font color=&quot;#ffffff&quot;&gt;&lt;b&gt;&lt;br&gt;&lt;/b&gt;&lt;/font&gt;" style="swimlane;fontStyle=0;align=center;verticalAlign=middle;childLayout=stackLayout;horizontal=1;startSize=55;horizontalStack=0;resizeParent=0;resizeParentMax=0;resizeLast=1;collapsible=0;marginBottom=0;fontFamily=Helvetica;html=1;strokeColor=#9673a6;swimlaneFillColor=#E1D5E7;fillColor=#9673A6;rounded=1;" vertex="1" parent="1">
                    <mxGeometry x="-330" y="340" width="200" height="320" as="geometry"/>
                </mxCell>
                <mxCell id="Ar9rGKO723f08wQL0Or9-549" value="attributes" style="text;strokeColor=none;fillColor=none;align=center;verticalAlign=middle;spacingLeft=4;spacingRight=4;overflow=hidden;rotatable=0;points=[[0,0.5],[1,0.5]];portConstraint=eastwest;fontFamily=Helvetica;html=1;" vertex="1" parent="Ar9rGKO723f08wQL0Or9-548">
                    <mxGeometry y="55" width="200" height="20" as="geometry"/>
                </mxCell>
                <mxCell id="Ar9rGKO723f08wQL0Or9-550" value="implements Animated Drone Interface" style="text;strokeColor=none;fillColor=none;align=left;verticalAlign=middle;spacingLeft=4;spacingRight=4;overflow=hidden;rotatable=0;points=[[0,0.5],[1,0.5]];portConstraint=eastwest;fontFamily=Helvetica;fontSize=11;html=1;" vertex="1" parent="Ar9rGKO723f08wQL0Or9-548">
                    <mxGeometry y="75" width="200" height="25" as="geometry"/>
                </mxCell>
                <mxCell id="Ar9rGKO723f08wQL0Or9-551" value="CM_PER_PIX&lt;br&gt;&lt;br&gt;drone_height" style="text;strokeColor=none;fillColor=none;align=left;verticalAlign=middle;spacingLeft=4;spacingRight=4;overflow=hidden;rotatable=0;points=[[0,0.5],[1,0.5]];portConstraint=eastwest;fontFamily=Helvetica;fontSize=11;html=1;" vertex="1" parent="Ar9rGKO723f08wQL0Or9-548">
                    <mxGeometry y="100" width="200" height="25" as="geometry"/>
                </mxCell>
                <mxCell id="Ar9rGKO723f08wQL0Or9-552" value="drone_height" style="text;strokeColor=none;fillColor=none;align=left;verticalAlign=middle;spacingLeft=4;spacingRight=4;overflow=hidden;rotatable=0;points=[[0,0.5],[1,0.5]];portConstraint=eastwest;fontFamily=Helvetica;fontSize=11;html=1;" vertex="1" parent="Ar9rGKO723f08wQL0Or9-548">
                    <mxGeometry y="125" width="200" height="25" as="geometry"/>
                </mxCell>
                <mxCell id="Ar9rGKO723f08wQL0Or9-553" value="" style="line;strokeWidth=1;fillColor=none;align=left;verticalAlign=middle;spacingTop=-1;spacingLeft=3;spacingRight=3;rotatable=0;labelPosition=right;points=[];portConstraint=eastwest;fontFamily=Helvetica;html=1;" vertex="1" parent="Ar9rGKO723f08wQL0Or9-548">
                    <mxGeometry y="150" width="200" height="12" as="geometry"/>
                </mxCell>
                <mxCell id="Ar9rGKO723f08wQL0Or9-554" value="operations" style="text;strokeColor=none;fillColor=none;align=center;verticalAlign=middle;spacingLeft=4;spacingRight=4;overflow=hidden;rotatable=0;points=[[0,0.5],[1,0.5]];portConstraint=eastwest;fontFamily=Helvetica;html=1;" vertex="1" parent="Ar9rGKO723f08wQL0Or9-548">
                    <mxGeometry y="162" width="200" height="28" as="geometry"/>
                </mxCell>
                <mxCell id="Ar9rGKO723f08wQL0Or9-555" value="PhysicalDroneAdapter()" style="text;strokeColor=none;fillColor=none;align=left;verticalAlign=middle;spacingLeft=4;spacingRight=4;overflow=hidden;rotatable=0;points=[[0,0.5],[1,0.5]];portConstraint=eastwest;fontFamily=Helvetica;html=1;" vertex="1" parent="Ar9rGKO723f08wQL0Or9-548">
                    <mxGeometry y="190" width="200" height="35" as="geometry"/>
                </mxCell>
                <mxCell id="Ar9rGKO723f08wQL0Or9-556" value="setDroneHeight()" style="text;strokeColor=none;fillColor=none;align=left;verticalAlign=middle;spacingLeft=4;spacingRight=4;overflow=hidden;rotatable=0;points=[[0,0.5],[1,0.5]];portConstraint=eastwest;fontFamily=Helvetica;html=1;" vertex="1" parent="Ar9rGKO723f08wQL0Or9-548">
                    <mxGeometry y="225" width="200" height="35" as="geometry"/>
                </mxCell>
                <mxCell id="Ar9rGKO723f08wQL0Or9-557" value="gotocomponent()" style="text;strokeColor=none;fillColor=none;align=left;verticalAlign=middle;spacingLeft=4;spacingRight=4;overflow=hidden;rotatable=0;points=[[0,0.5],[1,0.5]];portConstraint=eastwest;fontFamily=Helvetica;html=1;" vertex="1" parent="Ar9rGKO723f08wQL0Or9-548">
                    <mxGeometry y="260" width="200" height="25" as="geometry"/>
                </mxCell>
                <mxCell id="Ar9rGKO723f08wQL0Or9-558" value="scanFarm()" style="text;strokeColor=none;fillColor=none;align=left;verticalAlign=middle;spacingLeft=4;spacingRight=4;overflow=hidden;rotatable=0;points=[[0,0.5],[1,0.5]];portConstraint=eastwest;fontFamily=Helvetica;html=1;" vertex="1" parent="Ar9rGKO723f08wQL0Or9-548">
                    <mxGeometry y="285" width="200" height="25" as="geometry"/>
                </mxCell>
                <mxCell id="Ar9rGKO723f08wQL0Or9-559" value="&amp;nbsp;" style="text;strokeColor=none;fillColor=none;align=left;verticalAlign=middle;spacingLeft=4;spacingRight=4;overflow=hidden;rotatable=0;points=[[0,0.5],[1,0.5]];portConstraint=eastwest;fontFamily=Helvetica;html=1;" vertex="1" parent="Ar9rGKO723f08wQL0Or9-548">
                    <mxGeometry y="310" width="200" height="25" as="geometry"/>
                </mxCell>
                <mxCell id="Ar9rGKO723f08wQL0Or9-560" value="" style="line;strokeWidth=1;fillColor=none;align=left;verticalAlign=middle;spacingTop=-1;spacingLeft=3;spacingRight=3;rotatable=0;labelPosition=right;points=[];portConstraint=eastwest;fontFamily=Helvetica;fontColor=#FFFFFF;strokeColor=#FFFFFF;html=1;" vertex="1" parent="Ar9rGKO723f08wQL0Or9-548">
                    <mxGeometry y="335" width="200" height="-15" as="geometry"/>
                </mxCell>
                <mxCell id="Ar9rGKO723f08wQL0Or9-561" value="&lt;b&gt;&lt;font color=&quot;#ffffff&quot;&gt;Visitor &lt;br&gt;&lt;/font&gt;&lt;/b&gt;&lt;span style=&quot;color: rgb(255 , 255 , 255) ; font-size: 10px&quot;&gt;{ abstract Class }&lt;/span&gt;&lt;b&gt;&lt;font color=&quot;#ffffff&quot;&gt;&lt;br&gt;&lt;/font&gt;&lt;/b&gt;" style="swimlane;fontStyle=0;align=center;verticalAlign=middle;childLayout=stackLayout;horizontal=1;startSize=55;horizontalStack=0;resizeParent=0;resizeParentMax=0;resizeLast=1;collapsible=0;marginBottom=0;html=1;fontFamily=Helvetica;strokeColor=#9673a6;swimlaneFillColor=#E1D5E7;fillColor=#9673A6;rounded=1;" vertex="1" parent="1">
                    <mxGeometry x="-210" y="710" width="200" height="170" as="geometry"/>
                </mxCell>
                <mxCell id="Ar9rGKO723f08wQL0Or9-562" value="attributes" style="text;html=1;strokeColor=none;fillColor=none;align=center;verticalAlign=middle;spacingLeft=4;spacingRight=4;overflow=hidden;rotatable=0;points=[[0,0.5],[1,0.5]];portConstraint=eastwest;fontFamily=Helvetica;" vertex="1" parent="Ar9rGKO723f08wQL0Or9-561">
                    <mxGeometry y="55" width="200" height="20" as="geometry"/>
                </mxCell>
                <mxCell id="Ar9rGKO723f08wQL0Or9-563" value="" style="line;strokeWidth=1;fillColor=none;align=left;verticalAlign=middle;spacingTop=-1;spacingLeft=3;spacingRight=3;rotatable=0;labelPosition=right;points=[];portConstraint=eastwest;fontFamily=Helvetica;html=1;" vertex="1" parent="Ar9rGKO723f08wQL0Or9-561">
                    <mxGeometry y="75" width="200" height="12" as="geometry"/>
                </mxCell>
                <mxCell id="Ar9rGKO723f08wQL0Or9-564" value="operations" style="text;strokeColor=none;fillColor=none;align=center;verticalAlign=middle;spacingLeft=4;spacingRight=4;overflow=hidden;rotatable=0;points=[[0,0.5],[1,0.5]];portConstraint=eastwest;fontFamily=Helvetica;html=1;" vertex="1" parent="Ar9rGKO723f08wQL0Or9-561">
                    <mxGeometry y="87" width="200" height="20" as="geometry"/>
                </mxCell>
                <mxCell id="Ar9rGKO723f08wQL0Or9-565" value="value()" style="text;strokeColor=none;fillColor=none;align=left;verticalAlign=middle;spacingLeft=4;spacingRight=4;overflow=hidden;rotatable=0;points=[[0,0.5],[1,0.5]];portConstraint=eastwest;fontFamily=Helvetica;html=1;" vertex="1" parent="Ar9rGKO723f08wQL0Or9-561">
                    <mxGeometry y="107" width="200" height="25" as="geometry"/>
                </mxCell>
                <mxCell id="Ar9rGKO723f08wQL0Or9-566" value="visit()" style="text;strokeColor=none;fillColor=none;align=left;verticalAlign=middle;spacingLeft=4;spacingRight=4;overflow=hidden;rotatable=0;points=[[0,0.5],[1,0.5]];portConstraint=eastwest;fontFamily=Helvetica;html=1;" vertex="1" parent="Ar9rGKO723f08wQL0Or9-561">
                    <mxGeometry y="132" width="200" height="25" as="geometry"/>
                </mxCell>
                <mxCell id="Ar9rGKO723f08wQL0Or9-567" value="&amp;nbsp;" style="text;strokeColor=none;fillColor=none;align=left;verticalAlign=middle;spacingLeft=4;spacingRight=4;overflow=hidden;rotatable=0;points=[[0,0.5],[1,0.5]];portConstraint=eastwest;fontFamily=Helvetica;html=1;" vertex="1" parent="Ar9rGKO723f08wQL0Or9-561">
                    <mxGeometry y="157" width="200" height="25" as="geometry"/>
                </mxCell>
                <mxCell id="Ar9rGKO723f08wQL0Or9-568" value="" style="line;strokeWidth=1;fillColor=none;align=left;verticalAlign=middle;spacingTop=-1;spacingLeft=3;spacingRight=3;rotatable=0;labelPosition=right;points=[];portConstraint=eastwest;fontFamily=Helvetica;strokeColor=#FFFFFF;" vertex="1" parent="Ar9rGKO723f08wQL0Or9-561">
                    <mxGeometry y="182" width="200" height="-12" as="geometry"/>
                </mxCell>
                <mxCell id="Ar9rGKO723f08wQL0Or9-569" value="" style="endArrow=classic;html=1;entryX=0.5;entryY=0;entryDx=0;entryDy=0;" edge="1" parent="1">
                    <mxGeometry width="50" height="50" relative="1" as="geometry">
                        <mxPoint x="850" y="678" as="sourcePoint"/>
                        <mxPoint x="380" y="110" as="targetPoint"/>
                        <Array as="points">
                            <mxPoint x="850" y="790"/>
                            <mxPoint x="520" y="790"/>
                            <mxPoint x="520" y="80"/>
                            <mxPoint x="380" y="80"/>
                        </Array>
                    </mxGeometry>
                </mxCell>
                <mxCell id="Ar9rGKO723f08wQL0Or9-570" value="interacts with" style="text;html=1;strokeColor=none;fillColor=none;align=center;verticalAlign=middle;whiteSpace=wrap;rounded=0;" vertex="1" parent="1">
                    <mxGeometry x="760" y="770" width="90" height="20" as="geometry"/>
                </mxCell>
                <mxCell id="Ar9rGKO723f08wQL0Or9-571" value="" style="endArrow=classic;html=1;fontColor=#FFFFFF;exitX=0.5;exitY=0;exitDx=0;exitDy=0;entryX=0.5;entryY=0;entryDx=0;entryDy=0;" edge="1" parent="1" source="Ar9rGKO723f08wQL0Or9-472">
                    <mxGeometry width="50" height="50" relative="1" as="geometry">
                        <mxPoint x="1595" y="290" as="sourcePoint"/>
                        <mxPoint x="850" y="180" as="targetPoint"/>
                        <Array as="points">
                            <mxPoint x="1310" y="60"/>
                            <mxPoint x="850" y="60"/>
                        </Array>
                    </mxGeometry>
                </mxCell>
                <mxCell id="Ar9rGKO723f08wQL0Or9-572" value="interacts with" style="text;html=1;strokeColor=none;fillColor=none;align=center;verticalAlign=middle;whiteSpace=wrap;rounded=0;" vertex="1" parent="1">
                    <mxGeometry x="850" y="60" width="90" height="20" as="geometry"/>
                </mxCell>
                <mxCell id="Ar9rGKO723f08wQL0Or9-573" value="Tello Drone&#10;~~ Class ~~" style="swimlane;fontStyle=0;align=center;verticalAlign=middle;childLayout=stackLayout;horizontal=1;startSize=55;horizontalStack=0;resizeParent=0;resizeParentMax=0;resizeLast=1;collapsible=0;marginBottom=0;fontFamily=Helvetica;strokeColor=#9673a6;swimlaneFillColor=#E1D5E7;fillColor=#9673A6;rounded=1;fontColor=#FFFFFF;" vertex="1" parent="1">
                    <mxGeometry x="-600" y="80" width="200" height="1200" as="geometry"/>
                </mxCell>
                <mxCell id="Ar9rGKO723f08wQL0Or9-574" value="attributes" style="text;strokeColor=none;fillColor=none;align=center;verticalAlign=middle;spacingLeft=4;spacingRight=4;overflow=hidden;rotatable=0;points=[[0,0.5],[1,0.5]];portConstraint=eastwest;fontFamily=Helvetica;" vertex="1" parent="Ar9rGKO723f08wQL0Or9-573">
                    <mxGeometry y="55" width="200" height="20" as="geometry"/>
                </mxCell>
                <mxCell id="Ar9rGKO723f08wQL0Or9-575" value="extends MultiRotorDrone" style="text;strokeColor=none;fillColor=none;align=left;verticalAlign=middle;spacingLeft=4;spacingRight=4;overflow=hidden;rotatable=0;points=[[0,0.5],[1,0.5]];portConstraint=eastwest;fontFamily=Helvetica;fontSize=10;" vertex="1" parent="Ar9rGKO723f08wQL0Or9-573">
                    <mxGeometry y="75" width="200" height="25" as="geometry"/>
                </mxCell>
                <mxCell id="Ar9rGKO723f08wQL0Or9-576" value="min/maxGoTo" style="text;strokeColor=none;fillColor=none;align=left;verticalAlign=middle;spacingLeft=4;spacingRight=4;overflow=hidden;rotatable=0;points=[[0,0.5],[1,0.5]];portConstraint=eastwest;fontFamily=Helvetica;" vertex="1" parent="Ar9rGKO723f08wQL0Or9-573">
                    <mxGeometry y="100" width="200" height="25" as="geometry"/>
                </mxCell>
                <mxCell id="Ar9rGKO723f08wQL0Or9-577" value="min/maxSpeed" style="text;strokeColor=none;fillColor=none;align=left;verticalAlign=middle;spacingLeft=4;spacingRight=4;overflow=hidden;rotatable=0;points=[[0,0.5],[1,0.5]];portConstraint=eastwest;fontFamily=Helvetica;" vertex="1" parent="Ar9rGKO723f08wQL0Or9-573">
                    <mxGeometry y="125" width="200" height="25" as="geometry"/>
                </mxCell>
                <mxCell id="Ar9rGKO723f08wQL0Or9-578" value="min/maxDistance" style="text;strokeColor=none;fillColor=none;align=left;verticalAlign=middle;spacingLeft=4;spacingRight=4;overflow=hidden;rotatable=0;points=[[0,0.5],[1,0.5]];portConstraint=eastwest;fontFamily=Helvetica;" vertex="1" parent="Ar9rGKO723f08wQL0Or9-573">
                    <mxGeometry y="150" width="200" height="25" as="geometry"/>
                </mxCell>
                <mxCell id="Ar9rGKO723f08wQL0Or9-579" value="min/maxDegrees" style="text;strokeColor=none;fillColor=none;align=left;verticalAlign=middle;spacingLeft=4;spacingRight=4;overflow=hidden;rotatable=0;points=[[0,0.5],[1,0.5]];portConstraint=eastwest;fontFamily=Helvetica;" vertex="1" parent="Ar9rGKO723f08wQL0Or9-573">
                    <mxGeometry y="175" width="200" height="25" as="geometry"/>
                </mxCell>
                <mxCell id="Ar9rGKO723f08wQL0Or9-580" value="flightCamera" style="text;strokeColor=none;fillColor=none;align=left;verticalAlign=middle;spacingLeft=4;spacingRight=4;overflow=hidden;rotatable=0;points=[[0,0.5],[1,0.5]];portConstraint=eastwest;fontFamily=Helvetica;" vertex="1" parent="Ar9rGKO723f08wQL0Or9-573">
                    <mxGeometry y="200" width="200" height="25" as="geometry"/>
                </mxCell>
                <mxCell id="Ar9rGKO723f08wQL0Or9-581" value="flightRecorder" style="text;strokeColor=none;fillColor=none;align=left;verticalAlign=middle;spacingLeft=4;spacingRight=4;overflow=hidden;rotatable=0;points=[[0,0.5],[1,0.5]];portConstraint=eastwest;fontFamily=Helvetica;" vertex="1" parent="Ar9rGKO723f08wQL0Or9-573">
                    <mxGeometry y="225" width="200" height="25" as="geometry"/>
                </mxCell>
                <mxCell id="Ar9rGKO723f08wQL0Or9-582" value="" style="line;strokeWidth=1;fillColor=none;align=left;verticalAlign=middle;spacingTop=-1;spacingLeft=3;spacingRight=3;rotatable=0;labelPosition=right;points=[];portConstraint=eastwest;fontFamily=Helvetica;" vertex="1" parent="Ar9rGKO723f08wQL0Or9-573">
                    <mxGeometry y="250" width="200" height="12" as="geometry"/>
                </mxCell>
                <mxCell id="Ar9rGKO723f08wQL0Or9-583" value="operations" style="text;strokeColor=none;fillColor=none;align=center;verticalAlign=middle;spacingLeft=4;spacingRight=4;overflow=hidden;rotatable=0;points=[[0,0.5],[1,0.5]];portConstraint=eastwest;fontFamily=Helvetica;" vertex="1" parent="Ar9rGKO723f08wQL0Or9-573">
                    <mxGeometry y="262" width="200" height="20" as="geometry"/>
                </mxCell>
                <mxCell id="Ar9rGKO723f08wQL0Or9-584" value="TelloDrone()" style="text;strokeColor=none;fillColor=none;align=left;verticalAlign=middle;spacingLeft=4;spacingRight=4;overflow=hidden;rotatable=0;points=[[0,0.5],[1,0.5]];portConstraint=eastwest;fontFamily=Helvetica;" vertex="1" parent="Ar9rGKO723f08wQL0Or9-573">
                    <mxGeometry y="282" width="200" height="25" as="geometry"/>
                </mxCell>
                <mxCell id="Ar9rGKO723f08wQL0Or9-585" value="activateSDK()" style="text;strokeColor=none;fillColor=none;align=left;verticalAlign=middle;spacingLeft=4;spacingRight=4;overflow=hidden;rotatable=0;points=[[0,0.5],[1,0.5]];portConstraint=eastwest;fontFamily=Helvetica;" vertex="1" parent="Ar9rGKO723f08wQL0Or9-573">
                    <mxGeometry y="307" width="200" height="25" as="geometry"/>
                </mxCell>
                <mxCell id="Ar9rGKO723f08wQL0Or9-586" value="end()" style="text;strokeColor=none;fillColor=none;align=left;verticalAlign=middle;spacingLeft=4;spacingRight=4;overflow=hidden;rotatable=0;points=[[0,0.5],[1,0.5]];portConstraint=eastwest;fontFamily=Helvetica;" vertex="1" parent="Ar9rGKO723f08wQL0Or9-573">
                    <mxGeometry y="332" width="200" height="25" as="geometry"/>
                </mxCell>
                <mxCell id="Ar9rGKO723f08wQL0Or9-587" value="takeoff()" style="text;strokeColor=none;fillColor=none;align=left;verticalAlign=middle;spacingLeft=4;spacingRight=4;overflow=hidden;rotatable=0;points=[[0,0.5],[1,0.5]];portConstraint=eastwest;fontFamily=Helvetica;" vertex="1" parent="Ar9rGKO723f08wQL0Or9-573">
                    <mxGeometry y="357" width="200" height="25" as="geometry"/>
                </mxCell>
                <mxCell id="Ar9rGKO723f08wQL0Or9-588" value="land()" style="text;strokeColor=none;fillColor=none;align=left;verticalAlign=middle;spacingLeft=4;spacingRight=4;overflow=hidden;rotatable=0;points=[[0,0.5],[1,0.5]];portConstraint=eastwest;fontFamily=Helvetica;" vertex="1" parent="Ar9rGKO723f08wQL0Or9-573">
                    <mxGeometry y="382" width="200" height="25" as="geometry"/>
                </mxCell>
                <mxCell id="Ar9rGKO723f08wQL0Or9-589" value="streamOn/Off()" style="text;strokeColor=none;fillColor=none;align=left;verticalAlign=middle;spacingLeft=4;spacingRight=4;overflow=hidden;rotatable=0;points=[[0,0.5],[1,0.5]];portConstraint=eastwest;fontFamily=Helvetica;" vertex="1" parent="Ar9rGKO723f08wQL0Or9-573">
                    <mxGeometry y="407" width="200" height="25" as="geometry"/>
                </mxCell>
                <mxCell id="Ar9rGKO723f08wQL0Or9-590" value="streamViewOn/Off()" style="text;strokeColor=none;fillColor=none;align=left;verticalAlign=middle;spacingLeft=4;spacingRight=4;overflow=hidden;rotatable=0;points=[[0,0.5],[1,0.5]];portConstraint=eastwest;fontFamily=Helvetica;" vertex="1" parent="Ar9rGKO723f08wQL0Or9-573">
                    <mxGeometry y="432" width="200" height="25" as="geometry"/>
                </mxCell>
                <mxCell id="Ar9rGKO723f08wQL0Or9-591" value="streamRecordOn/Off()" style="text;strokeColor=none;fillColor=none;align=left;verticalAlign=middle;spacingLeft=4;spacingRight=4;overflow=hidden;rotatable=0;points=[[0,0.5],[1,0.5]];portConstraint=eastwest;fontFamily=Helvetica;" vertex="1" parent="Ar9rGKO723f08wQL0Or9-573">
                    <mxGeometry y="457" width="200" height="25" as="geometry"/>
                </mxCell>
                <mxCell id="Ar9rGKO723f08wQL0Or9-592" value="missionPadOn/Off()" style="text;strokeColor=none;fillColor=none;align=left;verticalAlign=middle;spacingLeft=4;spacingRight=4;overflow=hidden;rotatable=0;points=[[0,0.5],[1,0.5]];portConstraint=eastwest;fontFamily=Helvetica;" vertex="1" parent="Ar9rGKO723f08wQL0Or9-573">
                    <mxGeometry y="482" width="200" height="25" as="geometry"/>
                </mxCell>
                <mxCell id="Ar9rGKO723f08wQL0Or9-593" value="missionPadDirection()" style="text;strokeColor=none;fillColor=none;align=left;verticalAlign=middle;spacingLeft=4;spacingRight=4;overflow=hidden;rotatable=0;points=[[0,0.5],[1,0.5]];portConstraint=eastwest;fontFamily=Helvetica;" vertex="1" parent="Ar9rGKO723f08wQL0Or9-573">
                    <mxGeometry y="507" width="200" height="25" as="geometry"/>
                </mxCell>
                <mxCell id="Ar9rGKO723f08wQL0Or9-594" value="in/decreaseAltitude()" style="text;strokeColor=none;fillColor=none;align=left;verticalAlign=middle;spacingLeft=4;spacingRight=4;overflow=hidden;rotatable=0;points=[[0,0.5],[1,0.5]];portConstraint=eastwest;fontFamily=Helvetica;" vertex="1" parent="Ar9rGKO723f08wQL0Or9-573">
                    <mxGeometry y="532" width="200" height="25" as="geometry"/>
                </mxCell>
                <mxCell id="Ar9rGKO723f08wQL0Or9-595" value="flyForward/Backward/Left/Right()" style="text;strokeColor=none;fillColor=none;align=left;verticalAlign=middle;spacingLeft=4;spacingRight=4;overflow=hidden;rotatable=0;points=[[0,0.5],[1,0.5]];portConstraint=eastwest;fontFamily=Helvetica;" vertex="1" parent="Ar9rGKO723f08wQL0Or9-573">
                    <mxGeometry y="557" width="200" height="25" as="geometry"/>
                </mxCell>
                <mxCell id="Ar9rGKO723f08wQL0Or9-596" value="turnCW/CCW()" style="text;strokeColor=none;fillColor=none;align=left;verticalAlign=middle;spacingLeft=4;spacingRight=4;overflow=hidden;rotatable=0;points=[[0,0.5],[1,0.5]];portConstraint=eastwest;fontFamily=Helvetica;" vertex="1" parent="Ar9rGKO723f08wQL0Or9-573">
                    <mxGeometry y="582" width="200" height="25" as="geometry"/>
                </mxCell>
                <mxCell id="Ar9rGKO723f08wQL0Or9-597" value="gotoXY/Z()" style="text;strokeColor=none;fillColor=none;align=left;verticalAlign=middle;spacingLeft=4;spacingRight=4;overflow=hidden;rotatable=0;points=[[0,0.5],[1,0.5]];portConstraint=eastwest;fontFamily=Helvetica;" vertex="1" parent="Ar9rGKO723f08wQL0Or9-573">
                    <mxGeometry y="607" width="200" height="25" as="geometry"/>
                </mxCell>
                <mxCell id="Ar9rGKO723f08wQL0Or9-598" value="gotoMissionPadXY/Z()" style="text;strokeColor=none;fillColor=none;align=left;verticalAlign=middle;spacingLeft=4;spacingRight=4;overflow=hidden;rotatable=0;points=[[0,0.5],[1,0.5]];portConstraint=eastwest;fontFamily=Helvetica;" vertex="1" parent="Ar9rGKO723f08wQL0Or9-573">
                    <mxGeometry y="632" width="200" height="25" as="geometry"/>
                </mxCell>
                <mxCell id="Ar9rGKO723f08wQL0Or9-599" value="flip()" style="text;strokeColor=none;fillColor=none;align=left;verticalAlign=middle;spacingLeft=4;spacingRight=4;overflow=hidden;rotatable=0;points=[[0,0.5],[1,0.5]];portConstraint=eastwest;fontFamily=Helvetica;" vertex="1" parent="Ar9rGKO723f08wQL0Or9-573">
                    <mxGeometry y="657" width="200" height="25" as="geometry"/>
                </mxCell>
                <mxCell id="Ar9rGKO723f08wQL0Or9-600" value="flyCurve/MissionPad()" style="text;strokeColor=none;fillColor=none;align=left;verticalAlign=middle;spacingLeft=4;spacingRight=4;overflow=hidden;rotatable=0;points=[[0,0.5],[1,0.5]];portConstraint=eastwest;fontFamily=Helvetica;" vertex="1" parent="Ar9rGKO723f08wQL0Or9-573">
                    <mxGeometry y="682" width="200" height="25" as="geometry"/>
                </mxCell>
                <mxCell id="Ar9rGKO723f08wQL0Or9-601" value="jumpMissionPad()" style="text;strokeColor=none;fillColor=none;align=left;verticalAlign=middle;spacingLeft=4;spacingRight=4;overflow=hidden;rotatable=0;points=[[0,0.5],[1,0.5]];portConstraint=eastwest;fontFamily=Helvetica;" vertex="1" parent="Ar9rGKO723f08wQL0Or9-573">
                    <mxGeometry y="707" width="200" height="25" as="geometry"/>
                </mxCell>
                <mxCell id="Ar9rGKO723f08wQL0Or9-602" value="hover/stopInPlace()" style="text;strokeColor=none;fillColor=none;align=left;verticalAlign=middle;spacingLeft=4;spacingRight=4;overflow=hidden;rotatable=0;points=[[0,0.5],[1,0.5]];portConstraint=eastwest;fontFamily=Helvetica;" vertex="1" parent="Ar9rGKO723f08wQL0Or9-573">
                    <mxGeometry y="732" width="200" height="25" as="geometry"/>
                </mxCell>
                <mxCell id="Ar9rGKO723f08wQL0Or9-603" value="emergencyStop()" style="text;strokeColor=none;fillColor=none;align=left;verticalAlign=middle;spacingLeft=4;spacingRight=4;overflow=hidden;rotatable=0;points=[[0,0.5],[1,0.5]];portConstraint=eastwest;fontFamily=Helvetica;" vertex="1" parent="Ar9rGKO723f08wQL0Or9-573">
                    <mxGeometry y="757" width="200" height="25" as="geometry"/>
                </mxCell>
                <mxCell id="Ar9rGKO723f08wQL0Or9-604" value="get/setSpeed()" style="text;strokeColor=none;fillColor=none;align=left;verticalAlign=middle;spacingLeft=4;spacingRight=4;overflow=hidden;rotatable=0;points=[[0,0.5],[1,0.5]];portConstraint=eastwest;fontFamily=Helvetica;fontSize=12;" vertex="1" parent="Ar9rGKO723f08wQL0Or9-573">
                    <mxGeometry y="782" width="200" height="25" as="geometry"/>
                </mxCell>
                <mxCell id="Ar9rGKO723f08wQL0Or9-605" value="setAccessPoint()" style="text;strokeColor=none;fillColor=none;align=left;verticalAlign=middle;spacingLeft=4;spacingRight=4;overflow=hidden;rotatable=0;points=[[0,0.5],[1,0.5]];portConstraint=eastwest;fontFamily=Helvetica;fontSize=12;" vertex="1" parent="Ar9rGKO723f08wQL0Or9-573">
                    <mxGeometry y="807" width="200" height="25" as="geometry"/>
                </mxCell>
                <mxCell id="Ar9rGKO723f08wQL0Or9-606" value="getBattery()" style="text;strokeColor=none;fillColor=none;align=left;verticalAlign=middle;spacingLeft=4;spacingRight=4;overflow=hidden;rotatable=0;points=[[0,0.5],[1,0.5]];portConstraint=eastwest;fontFamily=Helvetica;fontSize=12;" vertex="1" parent="Ar9rGKO723f08wQL0Or9-573">
                    <mxGeometry y="832" width="200" height="25" as="geometry"/>
                </mxCell>
                <mxCell id="Ar9rGKO723f08wQL0Or9-607" value=" getTemp()" style="text;fontSize=12;verticalAlign=middle;" vertex="1" parent="Ar9rGKO723f08wQL0Or9-573">
                    <mxGeometry y="857" width="200" height="30" as="geometry"/>
                </mxCell>
                <mxCell id="Ar9rGKO723f08wQL0Or9-608" value=" getBarometer()" style="text;fontSize=12;verticalAlign=middle;" vertex="1" parent="Ar9rGKO723f08wQL0Or9-573">
                    <mxGeometry y="887" width="200" height="30" as="geometry"/>
                </mxCell>
                <mxCell id="Ar9rGKO723f08wQL0Or9-609" value=" getFlightTime()" style="text;fontSize=12;verticalAlign=middle;" vertex="1" parent="Ar9rGKO723f08wQL0Or9-573">
                    <mxGeometry y="917" width="200" height="30" as="geometry"/>
                </mxCell>
                <mxCell id="Ar9rGKO723f08wQL0Or9-610" value=" getHeight()" style="text;fontSize=12;verticalAlign=middle;" vertex="1" parent="Ar9rGKO723f08wQL0Or9-573">
                    <mxGeometry y="947" width="200" height="30" as="geometry"/>
                </mxCell>
                <mxCell id="Ar9rGKO723f08wQL0Or9-611" value=" getAttitudePitch/Roll/Yaw()" style="text;fontSize=12;verticalAlign=middle;" vertex="1" parent="Ar9rGKO723f08wQL0Or9-573">
                    <mxGeometry y="977" width="200" height="30" as="geometry"/>
                </mxCell>
                <mxCell id="Ar9rGKO723f08wQL0Or9-612" value=" getAccelerationX/Y/Z()" style="text;fontSize=12;verticalAlign=middle;" vertex="1" parent="Ar9rGKO723f08wQL0Or9-573">
                    <mxGeometry y="1007" width="200" height="30" as="geometry"/>
                </mxCell>
                <mxCell id="Ar9rGKO723f08wQL0Or9-613" value=" getTOF()" style="text;fontSize=12;verticalAlign=middle;" vertex="1" parent="Ar9rGKO723f08wQL0Or9-573">
                    <mxGeometry y="1037" width="200" height="30" as="geometry"/>
                </mxCell>
                <mxCell id="Ar9rGKO723f08wQL0Or9-614" value=" get/setWifi()" style="text;fontSize=12;verticalAlign=middle;" vertex="1" parent="Ar9rGKO723f08wQL0Or9-573">
                    <mxGeometry y="1067" width="200" height="30" as="geometry"/>
                </mxCell>
                <mxCell id="Ar9rGKO723f08wQL0Or9-615" value=" getVersionSDK()" style="text;fontSize=12;verticalAlign=middle;" vertex="1" parent="Ar9rGKO723f08wQL0Or9-573">
                    <mxGeometry y="1097" width="200" height="30" as="geometry"/>
                </mxCell>
                <mxCell id="Ar9rGKO723f08wQL0Or9-616" value=" getSerialNumber()" style="text;fontSize=12;verticalAlign=middle;" vertex="1" parent="Ar9rGKO723f08wQL0Or9-573">
                    <mxGeometry y="1127" width="200" height="30" as="geometry"/>
                </mxCell>
                <mxCell id="Ar9rGKO723f08wQL0Or9-617" value=" main()" style="text;fontSize=12;verticalAlign=middle;" vertex="1" parent="Ar9rGKO723f08wQL0Or9-573">
                    <mxGeometry y="1157" width="200" height="30" as="geometry"/>
                </mxCell>
                <mxCell id="Ar9rGKO723f08wQL0Or9-618" value="&amp;nbsp;" style="text;strokeColor=none;fillColor=none;align=left;verticalAlign=middle;spacingLeft=4;spacingRight=4;overflow=hidden;rotatable=0;points=[[0,0.5],[1,0.5]];portConstraint=eastwest;fontFamily=Helvetica;html=1;" vertex="1" parent="Ar9rGKO723f08wQL0Or9-573">
                    <mxGeometry y="1187" width="200" height="25" as="geometry"/>
                </mxCell>
                <mxCell id="Ar9rGKO723f08wQL0Or9-619" value="" style="line;strokeWidth=1;fillColor=none;align=left;verticalAlign=middle;spacingTop=-1;spacingLeft=3;spacingRight=3;rotatable=0;labelPosition=right;points=[];portConstraint=eastwest;fontFamily=Helvetica;strokeColor=#FFFFFF;" vertex="1" parent="Ar9rGKO723f08wQL0Or9-573">
                    <mxGeometry y="1212" width="200" height="-12" as="geometry"/>
                </mxCell>
                <mxCell id="Ar9rGKO723f08wQL0Or9-620" value="" style="endArrow=classic;html=1;entryX=0.5;entryY=0;entryDx=0;entryDy=0;" edge="1" parent="1">
                    <mxGeometry width="50" height="50" relative="1" as="geometry">
                        <mxPoint x="-110" y="880" as="sourcePoint"/>
                        <mxPoint x="-230" y="980" as="targetPoint"/>
                        <Array as="points">
                            <mxPoint x="-110" y="920"/>
                            <mxPoint x="-230" y="920"/>
                        </Array>
                    </mxGeometry>
                </mxCell>
                <mxCell id="Ar9rGKO723f08wQL0Or9-621" value="" style="endArrow=classic;html=1;entryX=0.5;entryY=0;entryDx=0;entryDy=0;" edge="1" parent="1">
                    <mxGeometry width="50" height="50" relative="1" as="geometry">
                        <mxPoint x="-110" y="880" as="sourcePoint"/>
                        <mxPoint x="10" y="980" as="targetPoint"/>
                        <Array as="points">
                            <mxPoint x="-110" y="920"/>
                            <mxPoint x="10" y="920"/>
                        </Array>
                    </mxGeometry>
                </mxCell>
                <mxCell id="Ar9rGKO723f08wQL0Or9-622" value="&lt;b&gt;&lt;font color=&quot;#ffffff&quot;&gt;Purchase Price Visitor &lt;br&gt;&lt;/font&gt;&lt;/b&gt;&lt;span style=&quot;color: rgb(255 , 255 , 255) ; font-size: 10px&quot;&gt;~~ Class ~~&lt;/span&gt;&lt;b&gt;&lt;font color=&quot;#ffffff&quot;&gt;&lt;br&gt;&lt;/font&gt;&lt;/b&gt;" style="swimlane;fontStyle=0;align=center;verticalAlign=middle;childLayout=stackLayout;horizontal=1;startSize=55;horizontalStack=0;resizeParent=0;resizeParentMax=0;resizeLast=1;collapsible=0;marginBottom=0;html=1;fontFamily=Helvetica;strokeColor=#9673a6;swimlaneFillColor=#E1D5E7;fillColor=#9673A6;rounded=1;" vertex="1" parent="1">
                    <mxGeometry x="-330" y="980" width="200" height="240" as="geometry"/>
                </mxCell>
                <mxCell id="Ar9rGKO723f08wQL0Or9-623" value="attributes" style="text;html=1;strokeColor=none;fillColor=none;align=center;verticalAlign=middle;spacingLeft=4;spacingRight=4;overflow=hidden;rotatable=0;points=[[0,0.5],[1,0.5]];portConstraint=eastwest;fontFamily=Helvetica;" vertex="1" parent="Ar9rGKO723f08wQL0Or9-622">
                    <mxGeometry y="55" width="200" height="20" as="geometry"/>
                </mxCell>
                <mxCell id="Ar9rGKO723f08wQL0Or9-624" value="extends Visitor" style="text;strokeColor=none;fillColor=none;align=left;verticalAlign=middle;spacingLeft=4;spacingRight=4;overflow=hidden;rotatable=0;points=[[0,0.5],[1,0.5]];portConstraint=eastwest;fontFamily=Helvetica;fontSize=11;html=1;" vertex="1" parent="Ar9rGKO723f08wQL0Or9-622">
                    <mxGeometry y="75" width="200" height="25" as="geometry"/>
                </mxCell>
                <mxCell id="Ar9rGKO723f08wQL0Or9-625" value="total" style="text;strokeColor=none;fillColor=none;align=left;verticalAlign=middle;spacingLeft=4;spacingRight=4;overflow=hidden;rotatable=0;points=[[0,0.5],[1,0.5]];portConstraint=eastwest;fontFamily=Helvetica;html=1;" vertex="1" parent="Ar9rGKO723f08wQL0Or9-622">
                    <mxGeometry y="100" width="200" height="25" as="geometry"/>
                </mxCell>
                <mxCell id="Ar9rGKO723f08wQL0Or9-626" value="" style="line;strokeWidth=1;fillColor=none;align=left;verticalAlign=middle;spacingTop=-1;spacingLeft=3;spacingRight=3;rotatable=0;labelPosition=right;points=[];portConstraint=eastwest;fontFamily=Helvetica;html=1;" vertex="1" parent="Ar9rGKO723f08wQL0Or9-622">
                    <mxGeometry y="125" width="200" height="12" as="geometry"/>
                </mxCell>
                <mxCell id="Ar9rGKO723f08wQL0Or9-627" value="operations" style="text;strokeColor=none;fillColor=none;align=center;verticalAlign=middle;spacingLeft=4;spacingRight=4;overflow=hidden;rotatable=0;points=[[0,0.5],[1,0.5]];portConstraint=eastwest;fontFamily=Helvetica;html=1;" vertex="1" parent="Ar9rGKO723f08wQL0Or9-622">
                    <mxGeometry y="137" width="200" height="20" as="geometry"/>
                </mxCell>
                <mxCell id="Ar9rGKO723f08wQL0Or9-628" value="PurchasePriceVisitor()" style="text;fillColor=#e1d5e7;align=left;verticalAlign=middle;spacingLeft=4;spacingRight=4;overflow=hidden;rotatable=0;points=[[0,0.5],[1,0.5]];portConstraint=eastwest;fontFamily=Helvetica;html=1;" vertex="1" parent="Ar9rGKO723f08wQL0Or9-622">
                    <mxGeometry y="157" width="200" height="25" as="geometry"/>
                </mxCell>
                <mxCell id="Ar9rGKO723f08wQL0Or9-629" value="value()" style="text;strokeColor=none;fillColor=none;align=left;verticalAlign=middle;spacingLeft=4;spacingRight=4;overflow=hidden;rotatable=0;points=[[0,0.5],[1,0.5]];portConstraint=eastwest;fontFamily=Helvetica;html=1;" vertex="1" parent="Ar9rGKO723f08wQL0Or9-622">
                    <mxGeometry y="182" width="200" height="25" as="geometry"/>
                </mxCell>
                <mxCell id="Ar9rGKO723f08wQL0Or9-630" value="visit()" style="text;strokeColor=none;fillColor=none;align=left;verticalAlign=middle;spacingLeft=4;spacingRight=4;overflow=hidden;rotatable=0;points=[[0,0.5],[1,0.5]];portConstraint=eastwest;fontFamily=Helvetica;html=1;" vertex="1" parent="Ar9rGKO723f08wQL0Or9-622">
                    <mxGeometry y="207" width="200" height="25" as="geometry"/>
                </mxCell>
                <mxCell id="Ar9rGKO723f08wQL0Or9-631" value="&amp;nbsp;" style="text;strokeColor=none;fillColor=none;align=left;verticalAlign=middle;spacingLeft=4;spacingRight=4;overflow=hidden;rotatable=0;points=[[0,0.5],[1,0.5]];portConstraint=eastwest;fontFamily=Helvetica;html=1;" vertex="1" parent="Ar9rGKO723f08wQL0Or9-622">
                    <mxGeometry y="232" width="200" height="25" as="geometry"/>
                </mxCell>
                <mxCell id="Ar9rGKO723f08wQL0Or9-632" value="" style="line;strokeWidth=1;fillColor=none;align=left;verticalAlign=middle;spacingTop=-1;spacingLeft=3;spacingRight=3;rotatable=0;labelPosition=right;points=[];portConstraint=eastwest;fontFamily=Helvetica;strokeColor=#FFFFFF;" vertex="1" parent="Ar9rGKO723f08wQL0Or9-622">
                    <mxGeometry y="257" width="200" height="-17" as="geometry"/>
                </mxCell>
                <mxCell id="Ar9rGKO723f08wQL0Or9-633" value="&lt;b&gt;&lt;font color=&quot;#ffffff&quot;&gt;Market Value Visitor &lt;br&gt;&lt;/font&gt;&lt;/b&gt;&lt;span style=&quot;color: rgb(255 , 255 , 255) ; font-size: 10px&quot;&gt;~~ Class ~~&lt;/span&gt;&lt;b&gt;&lt;font color=&quot;#ffffff&quot;&gt;&lt;br&gt;&lt;/font&gt;&lt;/b&gt;" style="swimlane;fontStyle=0;align=center;verticalAlign=middle;childLayout=stackLayout;horizontal=1;startSize=55;horizontalStack=0;resizeParent=0;resizeParentMax=0;resizeLast=1;collapsible=0;marginBottom=0;html=1;fontFamily=Helvetica;strokeColor=#9673a6;swimlaneFillColor=#E1D5E7;fillColor=#9673A6;rounded=1;" vertex="1" parent="1">
                    <mxGeometry x="-90" y="980" width="200" height="240" as="geometry"/>
                </mxCell>
                <mxCell id="Ar9rGKO723f08wQL0Or9-634" value="attributes" style="text;html=1;strokeColor=none;fillColor=none;align=center;verticalAlign=middle;spacingLeft=4;spacingRight=4;overflow=hidden;rotatable=0;points=[[0,0.5],[1,0.5]];portConstraint=eastwest;fontFamily=Helvetica;" vertex="1" parent="Ar9rGKO723f08wQL0Or9-633">
                    <mxGeometry y="55" width="200" height="20" as="geometry"/>
                </mxCell>
                <mxCell id="Ar9rGKO723f08wQL0Or9-635" value="extends Visitor" style="text;strokeColor=none;fillColor=none;align=left;verticalAlign=middle;spacingLeft=4;spacingRight=4;overflow=hidden;rotatable=0;points=[[0,0.5],[1,0.5]];portConstraint=eastwest;fontFamily=Helvetica;fontSize=11;html=1;" vertex="1" parent="Ar9rGKO723f08wQL0Or9-633">
                    <mxGeometry y="75" width="200" height="25" as="geometry"/>
                </mxCell>
                <mxCell id="Ar9rGKO723f08wQL0Or9-636" value="total" style="text;strokeColor=none;fillColor=none;align=left;verticalAlign=middle;spacingLeft=4;spacingRight=4;overflow=hidden;rotatable=0;points=[[0,0.5],[1,0.5]];portConstraint=eastwest;fontFamily=Helvetica;html=1;" vertex="1" parent="Ar9rGKO723f08wQL0Or9-633">
                    <mxGeometry y="100" width="200" height="25" as="geometry"/>
                </mxCell>
                <mxCell id="Ar9rGKO723f08wQL0Or9-637" value="" style="line;strokeWidth=1;fillColor=none;align=left;verticalAlign=middle;spacingTop=-1;spacingLeft=3;spacingRight=3;rotatable=0;labelPosition=right;points=[];portConstraint=eastwest;fontFamily=Helvetica;html=1;" vertex="1" parent="Ar9rGKO723f08wQL0Or9-633">
                    <mxGeometry y="125" width="200" height="12" as="geometry"/>
                </mxCell>
                <mxCell id="Ar9rGKO723f08wQL0Or9-638" value="operations" style="text;strokeColor=none;fillColor=none;align=center;verticalAlign=middle;spacingLeft=4;spacingRight=4;overflow=hidden;rotatable=0;points=[[0,0.5],[1,0.5]];portConstraint=eastwest;fontFamily=Helvetica;html=1;" vertex="1" parent="Ar9rGKO723f08wQL0Or9-633">
                    <mxGeometry y="137" width="200" height="20" as="geometry"/>
                </mxCell>
                <mxCell id="Ar9rGKO723f08wQL0Or9-639" value="MarketValueVisitor()" style="text;strokeColor=none;fillColor=none;align=left;verticalAlign=middle;spacingLeft=4;spacingRight=4;overflow=hidden;rotatable=0;points=[[0,0.5],[1,0.5]];portConstraint=eastwest;fontFamily=Helvetica;html=1;" vertex="1" parent="Ar9rGKO723f08wQL0Or9-633">
                    <mxGeometry y="157" width="200" height="25" as="geometry"/>
                </mxCell>
                <mxCell id="Ar9rGKO723f08wQL0Or9-640" value="value()" style="text;strokeColor=none;fillColor=none;align=left;verticalAlign=middle;spacingLeft=4;spacingRight=4;overflow=hidden;rotatable=0;points=[[0,0.5],[1,0.5]];portConstraint=eastwest;fontFamily=Helvetica;html=1;" vertex="1" parent="Ar9rGKO723f08wQL0Or9-633">
                    <mxGeometry y="182" width="200" height="25" as="geometry"/>
                </mxCell>
                <mxCell id="Ar9rGKO723f08wQL0Or9-641" value="visit()" style="text;strokeColor=none;fillColor=none;align=left;verticalAlign=middle;spacingLeft=4;spacingRight=4;overflow=hidden;rotatable=0;points=[[0,0.5],[1,0.5]];portConstraint=eastwest;fontFamily=Helvetica;html=1;" vertex="1" parent="Ar9rGKO723f08wQL0Or9-633">
                    <mxGeometry y="207" width="200" height="25" as="geometry"/>
                </mxCell>
                <mxCell id="Ar9rGKO723f08wQL0Or9-642" value="&amp;nbsp;" style="text;strokeColor=none;fillColor=none;align=left;verticalAlign=middle;spacingLeft=4;spacingRight=4;overflow=hidden;rotatable=0;points=[[0,0.5],[1,0.5]];portConstraint=eastwest;fontFamily=Helvetica;html=1;" vertex="1" parent="Ar9rGKO723f08wQL0Or9-633">
                    <mxGeometry y="232" width="200" height="25" as="geometry"/>
                </mxCell>
                <mxCell id="Ar9rGKO723f08wQL0Or9-643" value="" style="line;strokeWidth=1;fillColor=none;align=left;verticalAlign=middle;spacingTop=-1;spacingLeft=3;spacingRight=3;rotatable=0;labelPosition=right;points=[];portConstraint=eastwest;fontFamily=Helvetica;strokeColor=#FFFFFF;" vertex="1" parent="Ar9rGKO723f08wQL0Or9-633">
                    <mxGeometry y="257" width="200" height="-17" as="geometry"/>
                </mxCell>
                <mxCell id="Ar9rGKO723f08wQL0Or9-644" value="&amp;nbsp;" style="text;strokeColor=none;fillColor=none;align=left;verticalAlign=middle;spacingLeft=4;spacingRight=4;overflow=hidden;rotatable=0;points=[[0,0.5],[1,0.5]];portConstraint=eastwest;fontFamily=Helvetica;html=1;" vertex="1" parent="1">
                    <mxGeometry x="-210" y="910" width="200" height="25" as="geometry"/>
                </mxCell>
                <mxCell id="Ar9rGKO723f08wQL0Or9-645" value="" style="endArrow=classic;html=1;entryX=0.5;entryY=0;entryDx=0;entryDy=0;" edge="1" parent="1">
                    <mxGeometry width="50" height="50" relative="1" as="geometry">
                        <mxPoint x="-110" y="260" as="sourcePoint"/>
                        <mxPoint x="-230" y="340" as="targetPoint"/>
                        <Array as="points">
                            <mxPoint x="-110" y="280"/>
                            <mxPoint x="-230" y="280"/>
                        </Array>
                    </mxGeometry>
                </mxCell>
                <mxCell id="Ar9rGKO723f08wQL0Or9-646" value="" style="endArrow=classic;html=1;entryX=0.5;entryY=0;entryDx=0;entryDy=0;" edge="1" parent="1">
                    <mxGeometry width="50" height="50" relative="1" as="geometry">
                        <mxPoint x="-110" y="260" as="sourcePoint"/>
                        <mxPoint x="10" y="340" as="targetPoint"/>
                        <Array as="points">
                            <mxPoint x="-110" y="280"/>
                            <mxPoint x="10" y="280"/>
                        </Array>
                    </mxGeometry>
                </mxCell>
                <mxCell id="Ar9rGKO723f08wQL0Or9-647" value="" style="endArrow=classic;html=1;" edge="1" parent="1">
                    <mxGeometry width="50" height="50" relative="1" as="geometry">
                        <mxPoint x="1060" y="1160" as="sourcePoint"/>
                        <mxPoint x="380" y="110" as="targetPoint"/>
                        <Array as="points">
                            <mxPoint x="1060" y="1180"/>
                            <mxPoint x="900" y="1180"/>
                            <mxPoint x="900" y="800"/>
                            <mxPoint x="510" y="800"/>
                            <mxPoint x="510" y="90"/>
                            <mxPoint x="380" y="90"/>
                        </Array>
                    </mxGeometry>
                </mxCell>
                <mxCell id="Ar9rGKO723f08wQL0Or9-648" value="interacts with" style="text;html=1;strokeColor=none;fillColor=none;align=center;verticalAlign=middle;whiteSpace=wrap;rounded=0;" vertex="1" parent="1">
                    <mxGeometry x="810" y="800" width="90" height="20" as="geometry"/>
                </mxCell>
                <mxCell id="Ar9rGKO723f08wQL0Or9-649" value="" style="endArrow=classic;html=1;" edge="1" parent="1">
                    <mxGeometry width="50" height="50" relative="1" as="geometry">
                        <mxPoint x="1060" y="1170" as="sourcePoint"/>
                        <mxPoint x="-240" y="1220" as="targetPoint"/>
                        <Array as="points">
                            <mxPoint x="1060" y="1380"/>
                            <mxPoint x="-240" y="1380"/>
                            <mxPoint x="-240" y="1250"/>
                        </Array>
                    </mxGeometry>
                </mxCell>
                <mxCell id="Ar9rGKO723f08wQL0Or9-650" value="" style="endArrow=classic;html=1;" edge="1" parent="1">
                    <mxGeometry width="50" height="50" relative="1" as="geometry">
                        <mxPoint x="1060" y="1160" as="sourcePoint"/>
                        <mxPoint x="8" y="1220" as="targetPoint"/>
                        <Array as="points">
                            <mxPoint x="1060" y="1360"/>
                            <mxPoint x="8" y="1360"/>
                        </Array>
                    </mxGeometry>
                </mxCell>
                <mxCell id="Ar9rGKO723f08wQL0Or9-651" value="" style="endArrow=classic;html=1;" edge="1" parent="1">
                    <mxGeometry width="50" height="50" relative="1" as="geometry">
                        <mxPoint x="1060" y="1210" as="sourcePoint"/>
                        <mxPoint x="-239" y="663" as="targetPoint"/>
                        <Array as="points">
                            <mxPoint x="1060" y="1420"/>
                            <mxPoint x="-350" y="1420"/>
                            <mxPoint x="-350" y="1290"/>
                            <mxPoint x="-350" y="690"/>
                            <mxPoint x="-239" y="690"/>
                        </Array>
                    </mxGeometry>
                </mxCell>
                <mxCell id="Ar9rGKO723f08wQL0Or9-652" value="" style="endArrow=classic;html=1;" edge="1" parent="1">
                    <mxGeometry width="50" height="50" relative="1" as="geometry">
                        <mxPoint x="1060" y="1190" as="sourcePoint"/>
                        <mxPoint x="8" y="620" as="targetPoint"/>
                        <Array as="points">
                            <mxPoint x="1060" y="1400"/>
                            <mxPoint x="140" y="1400"/>
                            <mxPoint x="140" y="650"/>
                            <mxPoint x="8" y="650"/>
                        </Array>
                    </mxGeometry>
                </mxCell>
                <mxCell id="Ar9rGKO723f08wQL0Or9-653" value="interacts with" style="text;html=1;strokeColor=none;fillColor=none;align=center;verticalAlign=middle;whiteSpace=wrap;rounded=0;" vertex="1" parent="1">
                    <mxGeometry x="10" y="1330" width="90" height="20" as="geometry"/>
                </mxCell>
                <mxCell id="Ar9rGKO723f08wQL0Or9-654" value="interacts with" style="text;html=1;strokeColor=none;fillColor=none;align=center;verticalAlign=middle;whiteSpace=wrap;rounded=0;" vertex="1" parent="1">
                    <mxGeometry x="-240" y="1350" width="90" height="20" as="geometry"/>
                </mxCell>
                <mxCell id="Ar9rGKO723f08wQL0Or9-655" value="interacts with" style="text;html=1;strokeColor=none;fillColor=none;align=center;verticalAlign=middle;whiteSpace=wrap;rounded=0;" vertex="1" parent="1">
                    <mxGeometry x="-350" y="1390" width="90" height="20" as="geometry"/>
                </mxCell>
                <mxCell id="Ar9rGKO723f08wQL0Or9-656" value="interacts with" style="text;html=1;strokeColor=none;fillColor=none;align=center;verticalAlign=middle;whiteSpace=wrap;rounded=0;" vertex="1" parent="1">
                    <mxGeometry x="140" y="1380" width="90" height="20" as="geometry"/>
                </mxCell>
                <mxCell id="Ar9rGKO723f08wQL0Or9-657" value="" style="endArrow=classic;html=1;" edge="1" parent="1">
                    <mxGeometry width="50" height="50" relative="1" as="geometry">
                        <mxPoint x="-500" y="1280" as="sourcePoint"/>
                        <mxPoint x="-230" y="340" as="targetPoint"/>
                        <Array as="points">
                            <mxPoint x="-500" y="1330"/>
                            <mxPoint x="-360" y="1330"/>
                            <mxPoint x="-360" y="760"/>
                            <mxPoint x="-360" y="280"/>
                            <mxPoint x="-230" y="280"/>
                        </Array>
                    </mxGeometry>
                </mxCell>
                <mxCell id="Ar9rGKO723f08wQL0Or9-658" value="interacts with" style="text;html=1;strokeColor=none;fillColor=none;align=center;verticalAlign=middle;whiteSpace=wrap;rounded=0;" vertex="1" parent="1">
                    <mxGeometry x="-360" y="280" width="90" height="20" as="geometry"/>
                </mxCell>
                <mxCell id="Ar9rGKO723f08wQL0Or9-659" value="interacts with" style="text;html=1;strokeColor=none;fillColor=none;align=center;verticalAlign=middle;whiteSpace=wrap;rounded=0;" vertex="1" parent="1">
                    <mxGeometry x="500" y="40" width="90" height="20" as="geometry"/>
                </mxCell>
            </root>
        </mxGraphModel>
    </diagram>
    <diagram id="-d7a5GMBbC3WW8UiVprq" name="Project Description">
        <mxGraphModel dx="1604" dy="2871" grid="1" gridSize="10" guides="1" tooltips="1" connect="1" arrows="1" fold="1" page="1" pageScale="1" pageWidth="850" pageHeight="1100" math="0" shadow="0">
            <root>
                <mxCell id="CyvaJnYO7d2QV-XBQNY6-0"/>
                <mxCell id="CyvaJnYO7d2QV-XBQNY6-1" parent="CyvaJnYO7d2QV-XBQNY6-0"/>
                <mxCell id="8qTf6AMrvG6i6BFkLNHF-0" value="&lt;font style=&quot;font-size: 14px&quot; color=&quot;#6a5175&quot;&gt;&lt;br&gt;&lt;div style=&quot;text-align: center&quot;&gt;&lt;span&gt;&lt;b&gt;Drone App&lt;/b&gt;&lt;/span&gt;&lt;/div&gt;&lt;div style=&quot;font-weight: bold ; text-align: center&quot;&gt;&lt;b&gt;&lt;font&gt;Project Description&lt;/font&gt;&lt;/b&gt;&lt;/div&gt;&lt;/font&gt;&lt;div style=&quot;text-align: center&quot;&gt;&lt;font style=&quot;font-size: 14px&quot;&gt;&lt;br&gt;&lt;/font&gt;&lt;/div&gt;&lt;font size=&quot;3&quot;&gt;&lt;span style=&quot;font-family: &amp;#34;lato extended&amp;#34; , &amp;#34;lato&amp;#34; , &amp;#34;helvetica neue&amp;#34; , &amp;#34;helvetica&amp;#34; , &amp;#34;arial&amp;#34; , sans-serif&quot;&gt;&lt;font color=&quot;#333333&quot;&gt;Build a dashboard to setup items on the farm. For each item users should be able to provide basic details such as location coordinates, dimensions, price and others. &lt;br&gt;&lt;br&gt;The following use cases are being included in this part of the implementation:&lt;br&gt;&lt;span style=&quot;white-space: pre&quot;&gt;&#9;&lt;/span&gt;manage farm items;&amp;nbsp;visit item; scan farm; and&amp;nbsp;create farm layout&lt;/font&gt;&lt;/span&gt;&lt;span style=&quot;color: rgb(45 , 59 , 69) ; font-family: &amp;#34;lato extended&amp;#34; , &amp;#34;lato&amp;#34; , &amp;#34;helvetica neue&amp;#34; , &amp;#34;helvetica&amp;#34; , &amp;#34;arial&amp;#34; , sans-serif&quot;&gt;. &lt;br&gt;&lt;/span&gt;&lt;/font&gt;&lt;font&gt;&lt;font size=&quot;3&quot;&gt;&lt;br&gt;&lt;font color=&quot;#6a5175&quot;&gt;&lt;b&gt;Entity Super Classes:&lt;/b&gt;&lt;b&gt;&amp;nbsp;&lt;br&gt;&lt;/b&gt;&lt;/font&gt;&lt;font color=&quot;#333333&quot;&gt;Components Class (Abstract)&lt;/font&gt;&lt;br&gt;&lt;br&gt;&lt;font color=&quot;#6a5175&quot;&gt;&lt;b&gt;Entity Classes:&lt;/b&gt;&lt;b&gt;&amp;nbsp;&lt;/b&gt;&lt;br&gt;&lt;/font&gt;&lt;font color=&quot;#333333&quot;&gt;Item Class&lt;br&gt;Item Container Class&lt;/font&gt;&lt;br&gt;&lt;br&gt;&lt;b&gt;&lt;font color=&quot;#6a5175&quot;&gt;Boundary Classes:&lt;/font&gt;&lt;/b&gt;&lt;font color=&quot;#6a5175&quot;&gt;&lt;br&gt;&lt;/font&gt;&lt;font color=&quot;#333333&quot;&gt;Dashboard Class&lt;br&gt;Item Edit Dialog Controller Class&lt;/font&gt;&lt;br&gt;&lt;br&gt;&lt;font color=&quot;#6a5175&quot;&gt;&lt;font style=&quot;font-weight: bold&quot;&gt;Initializer:&amp;nbsp;&lt;/font&gt;&lt;br&gt;&lt;/font&gt;&lt;font color=&quot;#333333&quot;&gt;Main Class&lt;br&gt;&lt;/font&gt;&lt;br&gt;&lt;span style=&quot;font-family: &amp;#34;lato extended&amp;#34; , &amp;#34;lato&amp;#34; , &amp;#34;helvetica neue&amp;#34; , &amp;#34;helvetica&amp;#34; , &amp;#34;arial&amp;#34; , sans-serif&quot;&gt;&lt;br&gt;&lt;/span&gt;&lt;span style=&quot;font-family: &amp;#34;lato extended&amp;#34; , &amp;#34;lato&amp;#34; , &amp;#34;helvetica neue&amp;#34; , &amp;#34;helvetica&amp;#34; , &amp;#34;arial&amp;#34; , sans-serif&quot;&gt;&lt;font color=&quot;#55415e&quot;&gt;The &lt;b&gt;Singleton design pattern&lt;/b&gt; was implemented in the Dashboard Class&lt;br&gt;&lt;/font&gt;&lt;span style=&quot;color: rgb(45 , 59 , 69) ; white-space: pre&quot;&gt;&#9;&lt;/span&gt;&lt;br&gt;&lt;span style=&quot;color: rgb(45 , 59 , 69) ; white-space: pre&quot;&gt;&#9;&lt;/span&gt;&lt;font color=&quot;#2d3b45&quot;&gt;It contains:&amp;nbsp;&lt;/font&gt;&lt;/span&gt;&lt;br&gt;&lt;/font&gt;&lt;ul&gt;&lt;li&gt;&lt;font size=&quot;3&quot;&gt;&lt;span style=&quot;color: rgb(45 , 59 , 69) ; font-family: &amp;#34;lato extended&amp;#34; , &amp;#34;lato&amp;#34; , &amp;#34;helvetica neue&amp;#34; , &amp;#34;helvetica&amp;#34; , &amp;#34;arial&amp;#34; , sans-serif&quot;&gt;a private static instance variable,&amp;nbsp;&lt;/span&gt;&lt;/font&gt;&lt;/li&gt;&lt;li&gt;&lt;font size=&quot;3&quot;&gt;&lt;span style=&quot;color: rgb(45 , 59 , 69) ; font-family: &amp;#34;lato extended&amp;#34; , &amp;#34;lato&amp;#34; , &amp;#34;helvetica neue&amp;#34; , &amp;#34;helvetica&amp;#34; , &amp;#34;arial&amp;#34; , sans-serif&quot;&gt;a constructor (public due to JavaFX), and&amp;nbsp;&lt;/span&gt;&lt;/font&gt;&lt;/li&gt;&lt;li&gt;&lt;font size=&quot;3&quot;&gt;&lt;span style=&quot;color: rgb(45 , 59 , 69) ; font-family: &amp;#34;lato extended&amp;#34; , &amp;#34;lato&amp;#34; , &amp;#34;helvetica neue&amp;#34; , &amp;#34;helvetica&amp;#34; , &amp;#34;arial&amp;#34; , sans-serif&quot;&gt;a method that checks whether a current instance exists, and only instantiates a new instance if one &lt;/span&gt;&lt;span style=&quot;color: rgb(45 , 59 , 69) ; font-family: &amp;#34;lato extended&amp;#34; , &amp;#34;lato&amp;#34; , &amp;#34;helvetica neue&amp;#34; , &amp;#34;helvetica&amp;#34; , &amp;#34;arial&amp;#34; , sans-serif&quot;&gt;is not found&lt;/span&gt;&lt;/font&gt;&lt;/li&gt;&lt;/ul&gt;&lt;div&gt;&lt;font color=&quot;#2d3b45&quot; face=&quot;lato extended, lato, helvetica neue, helvetica, arial, sans-serif&quot; size=&quot;3&quot;&gt;The &lt;b&gt;Visitor&lt;/b&gt; design was implemented in the component class:&lt;/font&gt;&lt;/div&gt;&lt;div&gt;&lt;font color=&quot;#2d3b45&quot; face=&quot;lato extended, lato, helvetica neue, helvetica, arial, sans-serif&quot; size=&quot;3&quot;&gt;&lt;br&gt;&lt;/font&gt;&lt;/div&gt;&lt;div&gt;&lt;font color=&quot;#2d3b45&quot; face=&quot;lato extended, lato, helvetica neue, helvetica, arial, sans-serif&quot; size=&quot;3&quot;&gt;&lt;span style=&quot;white-space: pre&quot;&gt;&#9;&lt;/span&gt;&lt;span style=&quot;white-space: pre&quot;&gt;&#9;&lt;/span&gt;&lt;font&gt;The price calculations for purchase price and market value are performed with this design.&lt;/font&gt;&lt;br&gt;&lt;/font&gt;&lt;/div&gt;&lt;div&gt;&lt;font color=&quot;#2d3b45&quot; face=&quot;lato extended, lato, helvetica neue, helvetica, arial, sans-serif&quot;&gt;&lt;font size=&quot;3&quot;&gt;&lt;br&gt;&lt;/font&gt;&lt;/font&gt;&lt;/div&gt;&lt;div&gt;&lt;font color=&quot;#2d3b45&quot; face=&quot;lato extended, lato, helvetica neue, helvetica, arial, sans-serif&quot; size=&quot;3&quot;&gt;The &lt;b&gt;Adapter&lt;/b&gt;&amp;nbsp;design was implemented in the component class:&lt;/font&gt;&lt;/div&gt;&lt;div&gt;&lt;font color=&quot;#2d3b45&quot; face=&quot;lato extended, lato, helvetica neue, helvetica, arial, sans-serif&quot; size=&quot;3&quot;&gt;&lt;span style=&quot;white-space: pre&quot;&gt;&#9;&lt;/span&gt;&lt;span style=&quot;white-space: pre&quot;&gt;&#9;&lt;/span&gt;&lt;br&gt;&lt;/font&gt;&lt;/div&gt;&lt;div&gt;&lt;span style=&quot;white-space: pre&quot;&gt;&#9;&lt;/span&gt;&lt;span style=&quot;white-space: pre&quot;&gt;&#9;&lt;/span&gt;&lt;font size=&quot;3&quot;&gt;The Adaptor pattern implements the the real life movements of the drone to represent the positions &lt;span style=&quot;white-space: pre&quot;&gt;&#9;&lt;/span&gt;&lt;span style=&quot;white-space: pre&quot;&gt;&#9;&lt;/span&gt;and interactions of the Component and Item class of the given classes.&lt;/font&gt;&lt;br&gt;&lt;/div&gt;&lt;div&gt;&lt;span style=&quot;white-space: pre&quot;&gt;&#9;&lt;/span&gt;&lt;span style=&quot;white-space: pre&quot;&gt;&#9;&lt;/span&gt;&lt;br&gt;&lt;/div&gt;&lt;div&gt;&lt;font color=&quot;#2d3b45&quot; face=&quot;lato extended, lato, helvetica neue, helvetica, arial, sans-serif&quot;&gt;&lt;br&gt;&lt;/font&gt;&lt;/div&gt;&lt;ul style=&quot;padding: 0px ; margin: 0px 0px 6px 25px&quot;&gt;&lt;/ul&gt;&lt;span style=&quot;font-size: 16px ; font-family: &amp;#34;lato extended&amp;#34; , &amp;#34;lato&amp;#34; , &amp;#34;helvetica neue&amp;#34; , &amp;#34;helvetica&amp;#34; , &amp;#34;arial&amp;#34; , sans-serif&quot;&gt;&lt;font color=&quot;#55415e&quot;&gt;The &lt;b&gt;Composite design pattern&lt;/b&gt; was implemented in the Abstract Component Class which is extended by the Item Class and the ItemContainer Class.&lt;br&gt;&lt;/font&gt;&lt;br&gt;&lt;span style=&quot;color: rgb(45 , 59 , 69)&quot;&gt;&#9;&lt;/span&gt;&lt;span style=&quot;color: rgb(45 , 59 , 69) ; white-space: pre&quot;&gt;&#9;&lt;/span&gt;&lt;font color=&quot;#2d3b45&quot;&gt;The &lt;/font&gt;&lt;b style=&quot;color: rgb(45 , 59 , 69)&quot;&gt;Abstract Component Class&lt;/b&gt;&lt;font color=&quot;#2d3b45&quot;&gt; initializes the component with all required features, along with its &lt;/font&gt;&lt;span style=&quot;color: rgb(45 , 59 , 69) ; white-space: pre&quot;&gt;&#9;&lt;/span&gt;&lt;span style=&quot;color: rgb(45 , 59 , 69)&quot;&gt;&#9;&lt;span style=&quot;white-space: pre&quot;&gt;&#9;&lt;/span&gt;&lt;/span&gt;&lt;font color=&quot;#2d3b45&quot;&gt;shape and label.&amp;nbsp; &lt;/font&gt;&lt;br&gt;&lt;ul style=&quot;color: rgb(45 , 59 , 69)&quot;&gt;&lt;li&gt;&lt;font&gt;&lt;span style=&quot;font-size: 16px ; color: rgb(45 , 59 , 69) ; font-family: &amp;#34;lato extended&amp;#34; , &amp;#34;lato&amp;#34; , &amp;#34;helvetica neue&amp;#34; , &amp;#34;helvetica&amp;#34; , &amp;#34;arial&amp;#34; , sans-serif&quot;&gt;It houses all of the concrete getter and setter methods for the component. &lt;/span&gt;&lt;/font&gt;&lt;/li&gt;&lt;li&gt;&lt;font&gt;&lt;span style=&quot;font-size: 16px ; color: rgb(45 , 59 , 69) ; font-family: &amp;#34;lato extended&amp;#34; , &amp;#34;lato&amp;#34; , &amp;#34;helvetica neue&amp;#34; , &amp;#34;helvetica&amp;#34; , &amp;#34;arial&amp;#34; , sans-serif&quot;&gt;It contains the abstract methods for addComponent and deleteComponent. &lt;/span&gt;&lt;/font&gt;&lt;/li&gt;&lt;/ul&gt;&lt;span style=&quot;color: rgb(45 , 59 , 69)&quot;&gt;&#9;&lt;/span&gt;&lt;span style=&quot;color: rgb(45 , 59 , 69) ; white-space: pre&quot;&gt;&#9;&lt;/span&gt;&lt;font color=&quot;#2d3b45&quot;&gt;The &lt;/font&gt;&lt;b style=&quot;color: rgb(45 , 59 , 69)&quot;&gt;Item Class&lt;/b&gt;&lt;font color=&quot;#2d3b45&quot;&gt; extends the Abstract Component Class, assuming all of its features. &lt;/font&gt;&lt;br&gt;&lt;ul style=&quot;color: rgb(45 , 59 , 69)&quot;&gt;&lt;li&gt;&lt;font&gt;&lt;span style=&quot;font-size: 16px ; color: rgb(45 , 59 , 69) ; font-family: &amp;#34;lato extended&amp;#34; , &amp;#34;lato&amp;#34; , &amp;#34;helvetica neue&amp;#34; , &amp;#34;helvetica&amp;#34; , &amp;#34;arial&amp;#34; , sans-serif&quot;&gt;It implements the addComponent and deleteComponent methods by printing a string warning that this feature is not available. &lt;/span&gt;&lt;/font&gt;&lt;/li&gt;&lt;/ul&gt;&lt;span style=&quot;color: rgb(45 , 59 , 69)&quot;&gt;&#9;&lt;/span&gt;&lt;span style=&quot;color: rgb(45 , 59 , 69) ; white-space: pre&quot;&gt;&#9;&lt;/span&gt;&lt;font color=&quot;#2d3b45&quot;&gt;The &lt;/font&gt;&lt;b style=&quot;color: rgb(45 , 59 , 69)&quot;&gt;ItemContainer Class&lt;/b&gt;&lt;font color=&quot;#2d3b45&quot;&gt; extends the Abstract Component Class, assuming all of its features. &lt;/font&gt;&lt;br&gt;&lt;ul style=&quot;color: rgb(45 , 59 , 69)&quot;&gt;&lt;li&gt;&lt;font&gt;&lt;span style=&quot;font-size: 16px ; color: rgb(45 , 59 , 69) ; font-family: &amp;#34;lato extended&amp;#34; , &amp;#34;lato&amp;#34; , &amp;#34;helvetica neue&amp;#34; , &amp;#34;helvetica&amp;#34; , &amp;#34;arial&amp;#34; , sans-serif&quot;&gt;It contains an ArrayList for keeping track of all components. &lt;/span&gt;&lt;/font&gt;&lt;/li&gt;&lt;li&gt;&lt;font&gt;&lt;span style=&quot;font-size: 16px ; color: rgb(45 , 59 , 69) ; font-family: &amp;#34;lato extended&amp;#34; , &amp;#34;lato&amp;#34; , &amp;#34;helvetica neue&amp;#34; , &amp;#34;helvetica&amp;#34; , &amp;#34;arial&amp;#34; , sans-serif&quot;&gt;It implements the addComponent and deleteComponent methods by adding or removing a specified component to or from its ArrayList. &lt;/span&gt;&lt;/font&gt;&lt;/li&gt;&lt;li&gt;&lt;font&gt;&lt;span style=&quot;font-size: 16px ; color: rgb(45 , 59 , 69) ; font-family: &amp;#34;lato extended&amp;#34; , &amp;#34;lato&amp;#34; , &amp;#34;helvetica neue&amp;#34; , &amp;#34;helvetica&amp;#34; , &amp;#34;arial&amp;#34; , sans-serif&quot;&gt;It has the additional getter method for retrieving the ArrayList.&lt;/span&gt;&lt;/font&gt;&lt;/li&gt;&lt;/ul&gt;&lt;/span&gt;&lt;br&gt;&lt;/font&gt;" style="text;html=1;strokeColor=#9673a6;fillColor=#e1d5e7;align=left;verticalAlign=top;whiteSpace=wrap;rounded=1;arcSize=10;labelPadding=0;spacingLeft=6;spacingRight=6;" parent="CyvaJnYO7d2QV-XBQNY6-1" vertex="1">
                    <mxGeometry x="37" y="-1250" width="776" height="1235" as="geometry"/>
                </mxCell>
            </root>
        </mxGraphModel>
    </diagram>
</mxfile>
